# Blender v3.5.0 OBJ File: 'Starting Facility_final.blend'
# www.blender.org
mtllib debug_0000_message_0000.mtl
o control_room_Cube.061
v -128.000031 38.000023 -15.999943
v -128.000031 38.000023 -83.999962
v -47.975956 38.000023 -15.999943
v -47.975933 -38.000004 -15.999943
v -47.975933 -38.000004 -83.999962
v -128.000000 -38.000004 -83.999962
v -128.000000 -38.000004 -15.999943
v -47.975956 38.000023 -83.999962
vt 0.408029 0.951748
vt 0.408029 0.951748
vt 0.029529 0.962943
vt 0.408029 0.951748
vt 0.029529 0.962943
vt 0.408029 0.951748
vt 0.408029 0.951748
vt 0.408029 0.951748
vt 0.408029 0.951748
vt 0.408029 0.951748
vn 0.0000 1.0000 0.0000
vn 0.0000 -1.0000 0.0000
vn 0.0000 0.0000 -1.0000
vn 0.0000 0.0000 1.0000
vn -1.0000 -0.0000 0.0000
vn 1.0000 0.0000 0.0000
usemtl Material.005
s off
f 2/1/1 3/2/1 8/3/1
f 7/4/2 5/5/2 4/6/2
f 8/7/3 6/8/3 2/1/3
f 3/2/4 7/4/4 4/6/4
f 7/4/5 2/1/5 6/8/5
f 3/2/6 5/5/6 8/3/6
f 2/1/1 1/9/1 3/2/1
f 7/4/2 6/8/2 5/5/2
f 8/7/3 5/10/3 6/8/3
f 3/2/4 1/9/4 7/4/4
f 7/4/5 1/9/5 2/1/5
f 3/2/6 4/6/6 5/5/6
