# Blender v3.5.1 OBJ File: 'map newgeom.blend'
# www.blender.org
mtllib debug_0004_col.mtl
o Cube.008_Cube.007
v 149.049652 -23.375860 322.588593
v 149.049652 -23.375860 402.760254
v 149.049652 53.734787 322.588593
v 149.049652 53.734787 402.760254
v -87.517303 -23.375860 322.588593
v -87.517303 -23.375860 402.760254
v -87.517303 53.734787 322.588593
v -87.517303 53.734787 402.760254
v 138.202118 -19.840033 402.760254
v 138.202118 50.198956 402.760254
v -76.669769 50.198956 402.760254
v -76.669769 -19.840033 402.760254
v 138.202118 -19.840033 331.312714
v 138.202118 50.198956 331.312714
v -76.669769 50.198956 331.312714
v -76.669769 -19.840033 331.312714
v -87.517303 53.734787 402.760254
v -87.517303 -23.375860 402.760254
v -76.669769 50.198956 402.760254
v -76.669769 -19.840033 402.760254
vt 0.625000 0.000000
vt 0.375000 0.250000
vt 0.375000 0.000000
vt 0.625000 0.250000
vt 0.375000 0.500000
vt 0.625000 0.500000
vt 0.375000 0.750000
vt 0.625000 0.750000
vt 0.375000 1.000000
vt 0.125000 0.750000
vt 0.125000 0.500000
vt 0.625000 0.000000
vt 0.625000 0.250000
vt 0.625000 0.750000
vt 0.625000 1.000000
vt 0.625000 1.000000
vt 0.625000 1.000000
vt 0.625000 0.500000
vt 0.625000 0.750000
vt 0.625000 0.500000
vt 0.625000 0.750000
vt 0.875000 0.500000
vt 0.625000 0.750000
vt 0.625000 0.500000
vt 0.625000 0.250000
vt 0.625000 0.500000
vt 0.875000 0.750000
vt 0.625000 0.000000
vn -1.0000 0.0000 0.0000
vn 0.0000 -1.0000 0.0000
vn 1.0000 0.0000 0.0000
vn 0.0000 1.0000 0.0000
vn 0.0000 0.0000 1.0000
vn 0.0000 0.0000 -1.0000
usemtl None
s off
f 2/1/1 3/2/1 1/3/1
f 4/4/2 7/5/2 3/2/2
f 17/6/3 5/7/3 7/5/3
f 18/8/4 1/9/4 5/7/4
f 7/5/5 1/10/5 3/11/5
f 4/4/6 9/12/6 10/13/6
f 12/14/2 13/15/2 9/16/2
f 18/8/6 9/16/6 2/17/6
f 4/4/6 19/18/6 17/6/6
f 6/19/6 11/20/6 20/21/6
f 14/22/6 16/23/6 15/24/6
f 10/13/4 15/24/4 19/18/4
f 19/18/1 16/23/1 12/14/1
f 9/12/3 14/25/3 10/13/3
f 2/1/1 4/4/1 3/2/1
f 4/4/2 17/6/2 7/5/2
f 17/6/3 18/8/3 5/7/3
f 18/8/4 2/17/4 1/9/4
f 7/5/5 5/7/5 1/10/5
f 4/4/6 2/1/6 9/12/6
f 12/14/2 16/23/2 13/15/2
f 18/8/6 12/14/6 9/16/6
f 4/4/6 10/13/6 19/18/6
f 6/19/6 8/26/6 11/20/6
f 14/22/6 13/27/6 16/23/6
f 10/13/4 14/25/4 15/24/4
f 19/18/1 15/24/1 16/23/1
f 9/12/3 13/28/3 14/25/3
