# Blender v3.5.1 OBJ File: 'hallway.blend'
# www.blender.org
mtllib debug_0004_col.mtl
o Cube.009_Cube.022
v -68.159081 -6.621571 346.720062
v -68.159081 -6.621571 399.967529
v -68.159081 45.319786 346.720062
v -68.159081 45.319786 399.967529
v 294.000458 -6.621571 346.720062
v 294.000458 -6.621571 399.967529
v 294.000458 45.319786 346.720062
v 294.000458 45.319786 399.967529
v 288.103699 40.422974 394.947571
v 288.103699 40.422974 351.739990
v 288.103699 -1.724760 351.739990
v 288.103699 -1.724760 394.947571
v -63.278809 40.422974 394.947571
v -63.278809 40.422974 351.739990
v -63.278809 -1.724760 351.739990
v -63.278809 -1.724760 394.947571
v 241.685028 45.319786 346.720062
v 241.685028 45.319786 399.967529
v 241.685028 -6.621571 346.720062
v 241.685028 -6.621571 399.967529
v 247.640579 -1.724760 394.947571
v 247.668900 40.422974 394.947571
v 247.668900 40.422974 351.739990
v 247.640579 -1.724760 351.739990
v 288.103699 45.321068 394.947571
v 288.103699 45.321068 351.739990
v 247.668900 45.321068 394.947571
v 247.668900 45.321068 351.739990
v 294.000458 220.593292 346.720062
v 294.000458 220.593292 399.967529
v 241.685028 220.593292 346.720062
v 241.685028 220.593292 399.967529
v 288.103699 225.656784 394.947571
v 288.103699 225.656784 351.739990
v 247.668900 225.656784 394.947571
v 247.668900 225.656784 351.739990
v 288.103699 258.935425 378.937042
v 288.103699 258.935425 351.739990
v 247.668900 258.935425 378.937042
v 247.668900 258.935425 351.739990
v 288.103699 225.656784 460.359192
v 247.668900 225.656784 460.359192
v 288.103699 258.935425 460.359192
v 247.668900 258.935425 460.359192
v 288.103699 452.052612 378.937042
v 247.668900 452.052612 378.937042
v 288.103699 452.052612 460.359192
v 247.668900 452.052612 460.359192
v 294.000458 264.783051 346.720062
v 294.000458 264.783051 374.831268
v 241.685028 264.783051 346.720062
v 241.685028 264.783051 374.831268
v 294.000458 220.593292 464.480530
v 241.685028 220.593292 464.480530
v 294.000458 264.432587 464.480530
v 241.685028 264.432587 464.480530
v 294.000458 447.404083 374.831268
v 241.685028 447.404083 374.831268
v 294.000458 447.404083 464.480530
v 241.685028 447.404083 464.480530
v 288.103699 506.161133 378.937042
v 247.668900 506.161133 378.937042
v 288.103699 506.161133 460.359192
v 247.668900 506.161133 460.359192
v 294.000458 510.198669 374.831268
v 241.685028 510.198669 374.831268
v 294.000458 510.198669 464.480530
v 241.685028 510.198669 464.480530
v 602.675110 452.052612 378.937042
v 602.675110 452.052612 460.359192
v 602.675110 506.161133 378.937042
v 602.675110 506.161133 460.359192
v 602.675110 447.404083 374.957764
v 602.675110 447.404083 464.480530
v 602.675110 510.198669 374.957764
v 602.675110 510.198669 464.480530
v 681.460327 452.052612 378.937042
v 681.460327 452.052612 460.359192
v 681.460327 506.161133 378.937042
v 681.460327 506.161133 460.359192
v 681.460327 447.404083 374.957764
v 681.460327 447.404083 464.480530
v 681.460327 510.198669 374.957764
v 681.460327 510.198669 464.480530
v 817.749512 452.052612 378.937042
v 817.749512 452.052612 460.359192
v 817.749512 506.161133 378.937042
v 817.749512 506.161133 460.359192
v 817.749512 447.404083 374.831268
v 817.749512 447.404083 464.480530
v 817.749512 510.198669 374.831268
v 817.749512 510.198669 464.480530
v 602.675110 452.052612 374.957764
v 602.675110 506.161133 374.957764
v 681.460327 452.052612 374.957764
v 681.460327 506.161133 374.957764
v 602.675110 447.404083 375.084351
v 602.675110 510.198669 375.084351
v 681.460327 447.404083 375.084351
v 681.460327 510.198669 375.084351
vt 0.304401 0.472800
vt 0.316639 0.460562
vt 0.316639 0.472800
vt 0.316639 0.436085
vt 0.316639 0.448324
vt 0.316639 0.436085
vt 0.304401 0.434317
vt 0.316639 0.423847
vt 0.316639 0.434317
vt 0.316639 0.448324
vt 0.318407 0.436085
vt 0.318407 0.448324
vt 0.292162 0.448324
vt 0.302633 0.436085
vt 0.302633 0.448324
vt 0.304401 0.436085
vt 0.304401 0.448324
vt 0.304401 0.448324
vt 0.316639 0.436085
vt 0.316639 0.448324
vt 0.304401 0.436085
vt 0.304401 0.448324
vt 0.316639 0.436085
vt 0.304401 0.448324
vt 0.316639 0.448324
vt 0.304401 0.436085
vt 0.328877 0.436085
vt 0.328877 0.448324
vt 0.304401 0.460562
vt 0.316639 0.450091
vt 0.304401 0.436085
vt 0.316639 0.448324
vt 0.304401 0.448324
vt 0.316639 0.448324
vt 0.304401 0.448324
vt 0.316639 0.448324
vt 0.316639 0.448324
vt 0.304401 0.450091
vt 0.316639 0.450091
vt 0.316639 0.448324
vt 0.302633 0.448324
vt 0.304401 0.448324
vt 0.304401 0.448324
vt 0.304401 0.448324
vt 0.304401 0.448324
vt 0.304401 0.448324
vt 0.316639 0.448324
vt 0.316639 0.448324
vt 0.304401 0.448324
vt 0.304401 0.448324
vt 0.304401 0.448324
vt 0.304401 0.448324
vt 0.304401 0.448324
vt 0.304401 0.448324
vt 0.304401 0.448324
vt 0.304401 0.448324
vt 0.304401 0.450091
vt 0.316639 0.450091
vt 0.318407 0.448324
vt 0.316639 0.448324
vt 0.304401 0.448324
vt 0.302633 0.448324
vt 0.304401 0.448324
vt 0.302633 0.448324
vt 0.304401 0.448324
vt 0.318407 0.448324
vt 0.304401 0.448324
vt 0.302633 0.448324
vt 0.304401 0.450091
vt 0.304401 0.448324
vt 0.304401 0.450091
vt 0.302633 0.448324
vt 0.304401 0.448324
vt 0.304401 0.448324
vt 0.304401 0.448324
vt 0.304401 0.448324
vt 0.304401 0.448324
vt 0.304401 0.448324
vt 0.304401 0.448324
vt 0.304401 0.448324
vt 0.304401 0.448324
vt 0.304401 0.448324
vt 0.304401 0.448324
vt 0.304401 0.448324
vt 0.304401 0.448324
vt 0.304401 0.448324
vt 0.304401 0.448324
vt 0.304401 0.448324
vt 0.304401 0.448324
vt 0.304401 0.448324
vt 0.304401 0.448324
vt 0.304401 0.448324
vt 0.304401 0.448324
vt 0.304401 0.448324
vt 0.304401 0.448324
vt 0.304401 0.448324
vt 0.304401 0.448324
vt 0.304401 0.448324
vt 0.304401 0.448324
vt 0.304401 0.448324
vt 0.304401 0.448324
vt 0.304401 0.448324
vt 0.304401 0.448324
vt 0.304401 0.448324
vt 0.304401 0.448324
vt 0.304401 0.448324
vt 0.304401 0.448324
vt 0.304401 0.423847
vt 0.292162 0.436085
vt 0.304401 0.450091
vt 0.304401 0.448324
vt 0.304401 0.448324
vt 0.304401 0.448324
vn -1.0000 0.0000 0.0000
vn 0.0000 0.0000 1.0000
vn 0.0000 -1.0000 0.0000
vn 0.0000 0.0000 -1.0000
vn 1.0000 0.0000 0.0000
vn 0.0000 1.0000 0.0000
vn 0.0004 0.0000 -1.0000
vn -0.0009 0.0000 -1.0000
usemtl Material.015
s off
f 2/1/1 3/2/1 1/3/1
f 11/4/2 23/5/2 24/6/2
f 20/7/3 1/8/3 19/9/3
f 7/10/4 19/11/4 17/12/4
f 4/13/2 20/14/2 18/15/2
f 21/16/4 13/17/4 22/18/4
f 13/17/5 15/19/5 14/20/5
f 22/18/3 14/20/3 23/5/3
f 24/6/6 16/21/6 21/16/6
f 24/6/2 14/20/2 15/19/2
f 8/22/5 5/23/5 7/10/5
f 11/4/1 9/24/1 10/25/1
f 18/15/2 6/26/2 8/22/2
f 17/12/4 1/27/4 3/28/4
f 6/26/3 19/9/3 5/23/3
f 4/29/6 17/30/6 3/2/6
f 11/4/6 21/16/6 12/31/6
f 10/25/2 28/32/2 23/5/2
f 12/31/4 22/18/4 9/24/4
f 23/5/5 27/33/5 22/18/5
f 9/24/1 26/34/1 10/25/1
f 22/18/4 25/35/4 9/24/4
f 17/12/4 29/36/4 7/10/4
f 26/34/2 36/37/2 28/32/2
f 18/38/1 31/39/1 17/30/1
f 25/35/1 34/40/1 26/34/1
f 8/22/2 32/41/2 18/15/2
f 28/32/5 35/42/5 27/33/5
f 27/33/4 33/43/4 25/35/4
f 7/10/5 30/44/5 8/22/5
f 36/37/5 39/45/5 35/42/5
f 37/46/3 40/47/3 38/48/3
f 34/40/2 40/47/2 36/37/2
f 34/40/1 37/46/1 38/48/1
f 35/42/5 44/49/5 42/50/5
f 35/42/6 41/51/6 33/43/6
f 42/50/4 43/52/4 41/51/4
f 33/43/1 43/52/1 37/46/1
f 37/46/1 47/53/1 45/54/1
f 39/45/5 48/55/5 44/49/5
f 44/49/4 47/53/4 43/52/4
f 37/46/2 46/56/2 39/45/2
f 31/39/1 52/57/1 51/58/1
f 31/59/4 49/60/4 29/36/4
f 29/36/5 50/61/5 30/44/5
f 30/44/3 54/62/3 32/41/3
f 53/63/2 56/64/2 54/62/2
f 55/65/5 30/44/5 50/61/5
f 32/41/1 56/64/1 52/57/1
f 51/66/6 50/61/6 49/60/6
f 50/61/5 59/67/5 55/65/5
f 52/57/1 60/68/1 58/69/1
f 55/65/2 60/68/2 56/64/2
f 52/57/4 57/70/4 50/61/4
f 60/68/1 66/71/1 58/69/1
f 59/67/2 68/72/2 60/68/2
f 46/56/5 64/73/5 48/55/5
f 45/54/2 62/74/2 46/56/2
f 58/69/4 65/75/4 57/70/4
f 48/55/4 63/76/4 47/53/4
f 67/77/6 66/71/6 68/72/6
f 63/76/3 62/74/3 61/78/3
f 63/76/4 70/79/4 47/53/4
f 45/54/2 71/80/2 61/78/2
f 47/53/6 69/81/6 45/54/6
f 61/78/3 72/82/3 63/76/3
f 59/67/2 76/83/2 67/77/2
f 59/67/3 73/84/3 74/85/3
f 67/77/6 75/86/6 65/75/6
f 65/75/7 73/84/7 57/70/7
f 72/82/4 78/87/4 70/79/4
f 77/88/6 93/89/6 69/81/6
f 70/79/6 77/88/6 69/81/6
f 76/83/6 83/90/6 75/86/6
f 71/80/3 80/91/3 72/82/3
f 71/80/3 96/92/3 79/93/3
f 74/85/2 84/94/2 76/83/2
f 73/84/3 82/95/3 74/85/3
f 77/88/2 87/96/2 79/93/2
f 82/95/2 92/97/2 84/94/2
f 81/98/3 90/99/3 82/95/3
f 80/91/4 86/100/4 78/87/4
f 78/87/6 85/101/6 77/88/6
f 83/90/8 89/102/8 81/98/8
f 83/90/6 92/97/6 91/103/6
f 79/93/3 88/104/3 80/91/3
f 83/90/3 98/105/3 75/86/3
f 73/84/6 99/106/6 81/98/6
f 73/84/4 95/107/4 81/98/4
f 75/86/2 96/92/2 83/90/2
f 77/88/1 83/90/1 81/98/1
f 69/81/5 75/86/5 71/80/5
f 2/1/1 4/29/1 3/2/1
f 11/4/2 10/25/2 23/5/2
f 20/7/3 2/108/3 1/8/3
f 7/10/4 5/23/4 19/11/4
f 4/13/2 2/109/2 20/14/2
f 21/16/4 16/21/4 13/17/4
f 13/17/5 16/21/5 15/19/5
f 22/18/3 13/17/3 14/20/3
f 24/6/6 15/19/6 16/21/6
f 24/6/2 23/5/2 14/20/2
f 8/22/5 6/26/5 5/23/5
f 11/4/1 12/31/1 9/24/1
f 18/15/2 20/14/2 6/26/2
f 17/12/4 19/11/4 1/27/4
f 6/26/3 20/7/3 19/9/3
f 4/29/6 18/38/6 17/30/6
f 11/4/6 24/6/6 21/16/6
f 10/25/2 26/34/2 28/32/2
f 12/31/4 21/16/4 22/18/4
f 23/5/5 28/32/5 27/33/5
f 9/24/1 25/35/1 26/34/1
f 22/18/4 27/33/4 25/35/4
f 17/12/4 31/59/4 29/36/4
f 26/34/2 34/40/2 36/37/2
f 18/38/1 32/110/1 31/39/1
f 25/35/1 33/43/1 34/40/1
f 8/22/2 30/44/2 32/41/2
f 28/32/5 36/37/5 35/42/5
f 27/33/4 35/42/4 33/43/4
f 7/10/5 29/36/5 30/44/5
f 36/37/5 40/47/5 39/45/5
f 37/46/3 39/45/3 40/47/3
f 34/40/2 38/48/2 40/47/2
f 34/40/1 33/43/1 37/46/1
f 35/42/5 39/45/5 44/49/5
f 35/42/6 42/50/6 41/51/6
f 42/50/4 44/49/4 43/52/4
f 33/43/1 41/51/1 43/52/1
f 37/46/1 43/52/1 47/53/1
f 39/45/5 46/56/5 48/55/5
f 44/49/4 48/55/4 47/53/4
f 37/46/2 45/54/2 46/56/2
f 31/39/1 32/110/1 52/57/1
f 31/59/4 51/66/4 49/60/4
f 29/36/5 49/60/5 50/61/5
f 30/44/3 53/63/3 54/62/3
f 53/63/2 55/65/2 56/64/2
f 55/65/5 53/63/5 30/44/5
f 32/41/1 54/62/1 56/64/1
f 51/66/6 52/57/6 50/61/6
f 50/61/5 57/70/5 59/67/5
f 52/57/1 56/64/1 60/68/1
f 55/65/2 59/67/2 60/68/2
f 52/57/4 58/69/4 57/70/4
f 60/68/1 68/72/1 66/71/1
f 59/67/2 67/77/2 68/72/2
f 46/56/5 62/74/5 64/73/5
f 45/54/2 61/78/2 62/74/2
f 58/69/4 66/71/4 65/75/4
f 48/55/4 64/73/4 63/76/4
f 67/77/6 65/75/6 66/71/6
f 63/76/3 64/73/3 62/74/3
f 63/76/4 72/82/4 70/79/4
f 45/54/2 69/81/2 71/80/2
f 47/53/6 70/79/6 69/81/6
f 61/78/3 71/80/3 72/82/3
f 59/67/2 74/85/2 76/83/2
f 59/67/3 57/70/3 73/84/3
f 67/77/6 76/83/6 75/86/6
f 65/75/7 75/86/7 73/84/7
f 72/82/4 80/91/4 78/87/4
f 77/88/6 95/107/6 93/89/6
f 70/79/6 78/87/6 77/88/6
f 76/83/6 84/94/6 83/90/6
f 71/80/3 79/93/3 80/91/3
f 71/80/3 94/111/3 96/92/3
f 74/85/2 82/95/2 84/94/2
f 73/84/3 81/98/3 82/95/3
f 77/88/2 85/101/2 87/96/2
f 82/95/2 90/99/2 92/97/2
f 81/98/3 89/102/3 90/99/3
f 80/91/4 88/104/4 86/100/4
f 78/87/6 86/100/6 85/101/6
f 83/90/8 91/103/8 89/102/8
f 83/90/6 84/94/6 92/97/6
f 79/93/3 87/96/3 88/104/3
f 83/90/3 100/112/3 98/105/3
f 73/84/6 97/113/6 99/106/6
f 73/84/4 93/89/4 95/107/4
f 75/86/2 94/111/2 96/92/2
f 77/88/1 79/93/1 83/90/1
f 69/81/5 73/84/5 75/86/5
