# Blender v3.5.1 OBJ File: 'map test_alpha1.blend'
# www.blender.org
mtllib debug_0004_col.mtl
o Cube.002_Cube.004
v -64.969086 0.373621 340.867859
v -64.969086 0.373621 394.152527
v -64.969086 61.500904 340.867859
v -64.969086 61.500904 394.152527
v 63.606583 0.373621 340.867859
v 63.606583 0.373621 394.152527
v 63.606583 61.500904 340.867859
v 63.606583 61.500904 394.152527
v -64.969086 0.373621 340.867859
v -64.969086 0.373621 394.152527
v -52.256992 0.373621 394.152527
v -52.256992 0.373621 340.867859
v -64.969086 0.373621 340.867859
v -64.969086 0.373621 394.152527
v -52.256992 0.373621 394.152527
v -52.256992 0.373621 340.867859
v 63.606583 57.633713 390.781494
v 63.606583 57.633713 344.238892
v 63.606583 4.240808 344.238892
v 63.606583 4.240808 390.781494
v -60.322083 57.633713 390.781494
v -60.322083 57.633713 344.238892
v -60.322083 4.240808 344.238892
v -60.322083 4.240808 390.781494
v 63.606583 0.373621 394.152527
v 63.606583 0.373621 340.867859
v -52.256992 0.373621 394.152527
v -52.256992 0.373621 340.867859
vt 0.000000 1.000000
vt 1.000000 0.000000
vt 0.000000 0.000000
vt 0.000000 1.000000
vt 1.000000 0.000000
vt 0.000000 0.000000
vt 1.000000 0.000000
vt 1.000000 1.000000
vt 1.000000 1.000000
vt 0.000000 0.000000
vt 1.000000 0.000000
vt 1.000000 1.000000
vt 0.000000 1.000000
vt 1.000000 1.000000
vt 0.000000 0.000000
vt 1.000000 0.000000
vt 0.000000 1.000000
vt 0.000000 0.000000
vt 0.000000 0.000000
vt 0.000000 0.000000
vt 0.000000 1.000000
vt 1.000000 0.000000
vt 1.000000 1.000000
vt 1.000000 0.000000
vt 1.000000 0.000000
vt 1.000000 0.000000
vt 0.000000 0.000000
vt 0.000000 1.000000
vt 0.000000 1.000000
vt 1.000000 0.000000
vt 1.000000 1.000000
vt 0.000000 0.000000
vt 1.000000 0.000000
vt 1.000000 0.000000
vt 0.000000 0.000000
vt 0.000000 1.000000
vt 1.000000 1.000000
vt 0.000000 0.000000
vt 0.000000 1.000000
vt 0.000000 1.000000
vt 1.000000 1.000000
vt 1.000000 0.000000
vn -1.0000 0.0000 0.0000
vn 0.0000 1.0000 0.0000
vn 1.0000 0.0000 0.0000
vn 0.0000 0.0000 -1.0000
vn 0.0000 0.0000 1.0000
vn 0.0000 -1.0000 0.0000
usemtl Material.001
s off
f 2/1/1 3/2/1 1/3/1
f 4/4/2 7/5/2 3/6/2
f 25/7/3 17/8/3 8/9/3
f 25/7/4 10/10/4 27/11/4
f 7/12/4 1/3/4 3/13/4
f 4/4/5 25/7/5 8/9/5
f 15/14/6 13/15/6 16/16/6
f 6/17/6 28/18/6 5/19/6
f 2/1/5 9/20/5 10/21/5
f 1/3/5 12/22/5 9/20/5
f 18/23/5 23/24/5 19/25/5
f 8/9/3 18/26/3 7/5/3
f 26/27/3 20/28/3 25/29/3
f 26/30/3 18/23/3 19/25/3
f 21/31/3 23/32/3 22/33/3
f 20/34/4 21/31/4 17/8/4
f 17/8/6 22/33/6 18/26/6
f 19/35/2 24/36/2 20/28/2
f 2/1/1 4/37/1 3/2/1
f 4/4/2 8/9/2 7/5/2
f 25/7/3 20/34/3 17/8/3
f 25/7/5 2/38/5 10/10/5
f 7/12/4 26/30/4 1/3/4
f 4/4/5 2/38/5 25/7/5
f 15/14/6 14/39/6 13/15/6
f 6/17/6 11/40/6 28/18/6
f 2/1/5 1/3/5 9/20/5
f 1/3/5 26/30/5 12/22/5
f 18/23/5 22/41/5 23/24/5
f 8/9/3 17/8/3 18/26/3
f 26/27/3 19/35/3 20/28/3
f 26/30/3 7/12/3 18/23/3
f 21/31/3 24/36/3 23/32/3
f 20/34/4 24/42/4 21/31/4
f 17/8/6 21/31/6 22/33/6
f 19/35/2 23/32/2 24/36/2
