# Blender v3.5.0 OBJ File: 'Starting Facility_final.blend'
# www.blender.org
mtllib debug_0003_death_0000.mtl
o Rooms.001_Cube.155
v -3.999969 -38.000008 -99.999954
v -3.999969 -38.000008 -56.000004
v -3.999969 40.000008 -99.999954
v -3.999969 40.000008 -56.000004
v 77.999985 -38.000008 -99.999954
v 77.999985 -38.000008 -56.000004
v 77.999985 40.000008 -99.999954
v 77.999985 40.000008 -56.000004
vt 0.408029 0.951748
vt 0.408029 0.951748
vt 0.408029 0.951748
vt 0.408029 0.951748
vt 0.408029 0.951748
vt 0.408029 0.951748
vt 0.408029 0.951748
vt 0.408029 0.951748
vn 0.0000 -1.0000 0.0000
vn 0.0000 0.0000 1.0000
vn -1.0000 0.0000 0.0000
vn 1.0000 0.0000 0.0000
vn 0.0000 1.0000 0.0000
vn 0.0000 0.0000 -1.0000
usemtl Material.005
s off
f 5/1/1 2/2/1 1/3/1
f 6/4/2 4/5/2 2/2/2
f 3/6/3 2/2/3 4/5/3
f 6/4/4 7/7/4 8/8/4
f 4/5/5 7/7/5 3/6/5
f 1/3/6 7/7/6 5/1/6
f 5/1/1 6/4/1 2/2/1
f 6/4/2 8/8/2 4/5/2
f 3/6/3 1/3/3 2/2/3
f 6/4/4 5/1/4 7/7/4
f 4/5/5 8/8/5 7/7/5
f 1/3/6 3/6/6 7/7/6
