# Blender v3.5.1 OBJ File: 'map newgeom.blend'
# www.blender.org
mtllib debug_0004_dec.mtl
o Cube.006_Cube.008
v -101.759293 -40.791870 310.714996
v -101.759293 -40.791870 425.885620
v -101.759293 78.458824 310.714996
v -101.759293 78.458824 425.885620
v 276.400024 -40.791870 310.714996
v 276.400024 -40.791870 425.885620
v 276.400024 78.458824 310.714996
v 276.400024 78.458824 425.885620
v -101.759293 -40.791870 310.714996
v -101.759293 -40.791870 425.885620
v -89.047203 -40.791870 425.885620
v -89.047203 -40.791870 310.714996
v -101.759293 -40.791870 310.714996
v -101.759293 -40.791870 425.885620
v -89.047203 -40.791870 425.885620
v -89.047203 -40.791870 310.714996
v 276.400024 67.663971 415.460114
v 276.400024 67.663971 321.140503
v 276.400024 -29.997013 321.140503
v 276.400024 -29.997013 415.460114
v -80.912476 67.663971 415.460114
v -80.912476 67.663971 321.140503
v -80.912476 -29.997013 321.140503
v -80.912476 -29.997013 415.460114
vt 0.000000 1.000000
vt 1.000000 0.000000
vt 0.000000 0.000000
vt 0.000000 1.000000
vt 1.000000 0.000000
vt 0.000000 0.000000
vt 1.000000 0.000000
vt 1.000000 1.000000
vt 1.000000 1.000000
vt 0.000000 0.000000
vt 1.000000 0.000000
vt 1.000000 1.000000
vt 0.000000 1.000000
vt 1.000000 1.000000
vt 0.000000 0.000000
vt 1.000000 0.000000
vt 0.000000 1.000000
vt 0.000000 0.000000
vt 0.000000 0.000000
vt 0.000000 0.000000
vt 0.000000 1.000000
vt 1.000000 0.000000
vt 1.000000 0.000000
vt 1.000000 1.000000
vt 1.000000 0.000000
vt 0.000000 1.000000
vt 1.000000 0.000000
vt 1.000000 0.000000
vt 0.000000 0.000000
vt 1.000000 0.000000
vt 0.000000 0.000000
vt 0.000000 1.000000
vt 1.000000 1.000000
vt 1.000000 0.000000
vt 1.000000 1.000000
vt 0.000000 0.000000
vt 0.000000 1.000000
vt 0.000000 1.000000
vt 1.000000 0.000000
vt 1.000000 1.000000
vn -1.0000 0.0000 0.0000
vn 0.0000 1.0000 0.0000
vn 1.0000 0.0000 0.0000
vn 0.0000 0.0000 1.0000
vn 0.0000 0.0000 -1.0000
vn 0.0000 -1.0000 0.0000
usemtl Material.009
s off
f 2/1/1 3/2/1 1/3/1
f 4/4/2 7/5/2 3/6/2
f 6/7/3 17/8/3 8/9/3
f 6/7/4 10/10/4 11/11/4
f 7/12/5 1/3/5 3/13/5
f 4/4/4 6/7/4 8/9/4
f 15/14/6 13/15/6 16/16/6
f 6/17/6 12/18/6 5/19/6
f 2/1/4 9/20/4 10/21/4
f 1/3/4 12/22/4 9/20/4
f 20/23/5 21/24/5 17/8/5
f 7/5/3 17/8/3 18/25/3
f 5/19/3 20/26/3 6/17/3
f 7/12/3 19/27/3 5/28/3
f 21/24/3 23/29/3 22/30/3
f 17/8/6 22/30/6 18/25/6
f 19/31/2 24/32/2 20/26/2
f 18/33/4 23/34/4 19/27/4
f 2/1/1 4/35/1 3/2/1
f 4/4/2 8/9/2 7/5/2
f 6/7/3 20/23/3 17/8/3
f 6/7/4 2/36/4 10/10/4
f 7/12/5 5/28/5 1/3/5
f 4/4/4 2/36/4 6/7/4
f 15/14/6 14/37/6 13/15/6
f 6/17/6 11/38/6 12/18/6
f 2/1/4 1/3/4 9/20/4
f 1/3/5 5/28/5 12/22/5
f 20/23/5 24/39/5 21/24/5
f 7/5/3 8/9/3 17/8/3
f 5/19/3 19/31/3 20/26/3
f 7/12/3 18/33/3 19/27/3
f 21/24/3 24/32/3 23/29/3
f 17/8/6 21/24/6 22/30/6
f 19/31/2 23/29/2 24/32/2
f 18/33/4 22/40/4 23/34/4
