# Blender v3.5.0 OBJ File: 'BlenderExportTestMap.blend'
# www.blender.org
mtllib debug_0007_col.mtl
o Cube.056_Cube.109
v -60.000000 -60.000000 -60.000000
v -60.000000 -60.000000 60.000000
v -46.693161 75.350830 -48.975807
v -46.693161 75.350830 26.330160
v 60.000000 -60.000000 -60.000000
v 60.000000 -60.000000 60.000000
v 43.422142 39.166210 -43.422142
v 43.422142 39.166210 43.422142
v -60.000000 60.000000 60.000000
v -60.000000 60.000000 -60.000000
v 60.000000 60.000000 -60.000000
v 60.000000 60.000000 60.000000
v -43.422142 -32.498531 43.422142
v -43.422142 -32.498531 -43.422142
v 43.422142 -32.498531 -43.422142
v 43.422142 -32.498531 43.422142
v -93.553680 173.959106 59.327114
v -93.553680 173.959106 -127.780235
v 93.553680 173.959106 -127.780235
v 93.553680 173.959106 59.327114
v -64.433998 158.608276 19.065399
v -64.433998 158.608276 -49.657745
v 67.705017 173.959106 -101.931580
v 67.705017 173.959106 33.478458
v -41.486786 314.005768 59.327110
v -41.486786 314.005768 -127.780235
v 41.486786 314.005768 -127.780235
v 41.486786 314.005768 59.327110
v -30.024086 290.443665 33.478455
v -30.024086 290.443665 -101.931572
v 30.024086 290.443665 -101.931572
v 30.024086 290.443665 33.478455
v -43.422142 60.000000 43.422142
v -43.422142 60.000000 -43.422142
v -67.705017 173.959106 33.478458
v -67.705017 173.959106 -101.931580
v -112.196152 61.393181 26.330160
v -112.196152 61.393181 -48.975807
v -129.936996 144.650635 19.065399
v -129.936996 144.650635 -49.657745
v -116.226303 43.444946 60.000000
v -116.226303 43.444946 -60.000000
v -149.779984 157.404053 59.327114
v -149.779984 157.404053 -127.780235
v 201.535507 39.166210 43.422142
v 201.535507 39.166210 -43.422142
v 201.535507 -32.498531 43.422142
v 201.535507 -32.498531 -43.422142
v 201.181839 60.000000 60.000000
v 201.181839 60.000000 -60.000000
v 201.181839 -60.000000 -60.000000
v 201.181839 -60.000000 60.000000
v -60.000000 60.000000 -60.000000
v -60.000000 60.000000 -60.000000
v -60.000000 60.000000 -60.000000
v -60.000000 60.000000 -60.000000
v -60.000000 -60.000000 -60.000000
v -60.000000 -60.000000 -60.000000
v -60.000000 -60.000000 60.000000
v -60.000000 -60.000000 60.000000
v -60.000000 60.000000 60.000000
v -60.000000 60.000000 60.000000
v -60.000000 60.000000 60.000000
v -60.000000 60.000000 60.000000
v 60.000000 60.000000 -60.000000
v 60.000000 60.000000 -60.000000
v 60.000000 60.000000 -60.000000
v 60.000000 60.000000 -60.000000
v 60.000000 60.000000 60.000000
v 60.000000 60.000000 60.000000
v 60.000000 60.000000 60.000000
v 60.000000 60.000000 60.000000
v 60.000000 -60.000000 -60.000000
v 60.000000 -60.000000 -60.000000
v 60.000000 -60.000000 -60.000000
v 60.000000 -60.000000 60.000000
v 60.000000 -60.000000 60.000000
v 60.000000 -60.000000 60.000000
v -43.422142 60.000000 43.422142
v -43.422142 60.000000 43.422142
v -43.422142 60.000000 43.422142
v -43.422142 60.000000 43.422142
v -43.422142 60.000000 -43.422142
v -43.422142 60.000000 -43.422142
v -43.422142 60.000000 -43.422142
v -43.422142 60.000000 -43.422142
v 43.422142 39.166210 -43.422142
v 43.422142 39.166210 -43.422142
v 43.422142 39.166210 -43.422142
v 43.422142 39.166210 -43.422142
v 43.422142 39.166210 43.422142
v 43.422142 39.166210 43.422142
v 43.422142 39.166210 43.422142
v 43.422142 39.166210 43.422142
v 67.705017 173.959106 33.478458
v 67.705017 173.959106 33.478458
v 67.705017 173.959106 33.478458
v -67.705017 173.959106 33.478458
v -67.705017 173.959106 33.478458
v -67.705017 173.959106 33.478458
v -67.705017 173.959106 33.478458
v -93.553680 173.959106 59.327114
v -93.553680 173.959106 59.327114
v -93.553680 173.959106 59.327114
v -93.553680 173.959106 59.327114
v 93.553680 173.959106 59.327114
v 93.553680 173.959106 59.327114
v 93.553680 173.959106 59.327114
v -43.422142 -32.498531 43.422142
v -43.422142 -32.498531 43.422142
v -43.422142 -32.498531 -43.422142
v -43.422142 -32.498531 -43.422142
v 43.422142 -32.498531 -43.422142
v 43.422142 -32.498531 -43.422142
v 43.422142 -32.498531 -43.422142
v 43.422142 -32.498531 43.422142
v 43.422142 -32.498531 43.422142
v 43.422142 -32.498531 43.422142
v -93.553680 173.959106 -127.780235
v -93.553680 173.959106 -127.780235
v -93.553680 173.959106 -127.780235
v -93.553680 173.959106 -127.780235
v 93.553680 173.959106 -127.780235
v 93.553680 173.959106 -127.780235
v 93.553680 173.959106 -127.780235
v -67.705017 173.959106 -101.931580
v -67.705017 173.959106 -101.931580
v -67.705017 173.959106 -101.931580
v -67.705017 173.959106 -101.931580
v 67.705017 173.959106 -101.931580
v 67.705017 173.959106 -101.931580
v 67.705017 173.959106 -101.931580
v 41.486786 314.005768 59.327110
v 41.486786 314.005768 59.327110
v -30.024086 290.443665 -101.931572
v -30.024086 290.443665 -101.931572
v 30.024086 290.443665 33.478455
v 30.024086 290.443665 33.478455
v -30.024086 290.443665 33.478455
v -30.024086 290.443665 33.478455
v -41.486786 314.005768 59.327110
v -41.486786 314.005768 59.327110
v -41.486786 314.005768 -127.780235
v -41.486786 314.005768 -127.780235
v 41.486786 314.005768 -127.780235
v 41.486786 314.005768 -127.780235
v 30.024086 290.443665 -101.931572
v 30.024086 290.443665 -101.931572
v -46.693161 75.350830 26.330160
v -46.693161 75.350830 26.330160
v -46.693161 75.350830 26.330160
v -46.693161 75.350830 -48.975807
v -46.693161 75.350830 -48.975807
v -46.693161 75.350830 -48.975807
v -64.433998 158.608276 19.065399
v -64.433998 158.608276 19.065399
v -64.433998 158.608276 19.065399
v -64.433998 158.608276 -49.657745
v -64.433998 158.608276 -49.657745
v -64.433998 158.608276 -49.657745
v -112.196152 61.393181 26.330160
v -112.196152 61.393181 26.330160
v -112.196152 61.393181 -48.975807
v -112.196152 61.393181 -48.975807
v -129.936996 144.650635 19.065399
v -129.936996 144.650635 19.065399
v -129.936996 144.650635 -49.657745
v -129.936996 144.650635 -49.657745
v -116.226303 43.444946 60.000000
v -116.226303 43.444946 60.000000
v -116.226303 43.444946 -60.000000
v -116.226303 43.444946 -60.000000
v -149.779984 157.404053 59.327114
v -149.779984 157.404053 59.327114
v -149.779984 157.404053 -127.780235
v -149.779984 157.404053 -127.780235
v 201.535507 39.166210 43.422142
v 201.535507 39.166210 43.422142
v 201.535507 39.166210 43.422142
v 201.535507 39.166210 -43.422142
v 201.535507 39.166210 -43.422142
v 201.535507 39.166210 -43.422142
v 201.535507 -32.498531 43.422142
v 201.535507 -32.498531 43.422142
v 201.535507 -32.498531 43.422142
v 201.535507 -32.498531 -43.422142
v 201.535507 -32.498531 -43.422142
v 201.535507 -32.498531 -43.422142
v 201.181839 60.000000 60.000000
v 201.181839 60.000000 60.000000
v 201.181839 60.000000 60.000000
v 201.181839 60.000000 -60.000000
v 201.181839 60.000000 -60.000000
v 201.181839 60.000000 -60.000000
v 201.181839 -60.000000 -60.000000
v 201.181839 -60.000000 -60.000000
v 201.181839 -60.000000 -60.000000
v 201.181839 -60.000000 60.000000
v 201.181839 -60.000000 60.000000
v 201.181839 -60.000000 60.000000
vt 0.693603 0.399923
vt 0.675344 0.418182
vt 0.675344 0.399923
vt 0.691081 0.433919
vt 0.691081 0.420705
vt 0.691081 0.420705
vt 0.675344 0.454701
vt 0.693603 0.454701
vt 0.693603 0.454701
vt 0.693603 0.454701
vt 0.675344 0.472961
vt 0.675344 0.454701
vt 0.675344 0.436442
vt 0.657084 0.454701
vt 0.657084 0.436442
vt 0.711863 0.436442
vt 0.693603 0.454701
vt 0.693603 0.436442
vt 0.680162 0.420705
vt 0.688876 0.420705
vt 0.688876 0.420705
vt 0.711863 0.436442
vt 0.711863 0.436442
vt 0.711863 0.436442
vt 0.691081 0.420705
vt 0.691081 0.433919
vt 0.691081 0.433919
vt 0.693603 0.436442
vt 0.711863 0.436442
vt 0.711863 0.436442
vt 0.691081 0.420705
vt 0.677866 0.433919
vt 0.677866 0.420705
vt 0.691081 0.420705
vt 0.677866 0.420705
vt 0.677866 0.420705
vt 0.677866 0.433919
vt 0.677866 0.433919
vt 0.677866 0.433919
vt 0.677866 0.433919
vt 0.677866 0.420705
vt 0.677866 0.433919
vt 0.693603 0.418182
vt 0.675344 0.418182
vt 0.675344 0.418182
vt 0.693603 0.436442
vt 0.711863 0.436442
vt 0.711863 0.436442
vt 0.677866 0.420705
vt 0.691081 0.420705
vt 0.691081 0.420705
vt 0.691081 0.420705
vt 0.691081 0.433919
vt 0.691081 0.433919
vt 0.675344 0.436442
vt 0.693603 0.436442
vt 0.693603 0.436442
vt 0.677866 0.433919
vt 0.691081 0.433919
vt 0.677866 0.433919
vt 0.657084 0.436442
vt 0.675344 0.436442
vt 0.675344 0.436442
vt 0.677866 0.420705
vt 0.677866 0.433919
vt 0.677866 0.420705
vt 0.677866 0.433919
vt 0.691081 0.420705
vt 0.677866 0.420705
vt 0.711863 0.436442
vt 0.675344 0.436442
vt 0.657084 0.436442
vt 0.691081 0.433919
vt 0.677866 0.433919
vt 0.677866 0.433919
vt 0.677866 0.433919
vt 0.677866 0.420705
vt 0.677866 0.420705
vt 0.675344 0.436442
vt 0.693603 0.436442
vt 0.693603 0.436442
vt 0.657084 0.436442
vt 0.675344 0.436442
vt 0.675344 0.436442
vt 0.688876 0.420705
vt 0.677866 0.420705
vt 0.680162 0.420705
vt 0.688876 0.420705
vt 0.691081 0.420705
vt 0.691081 0.420705
vt 0.679670 0.420705
vt 0.691081 0.420705
vt 0.689359 0.420705
vt 0.680162 0.420705
vt 0.677866 0.420705
vt 0.679670 0.420705
vt 0.680162 0.420705
vt 0.689359 0.420705
vt 0.688876 0.420705
vt 0.679670 0.420705
vt 0.680162 0.420705
vt 0.680162 0.420705
vt 0.688876 0.420705
vt 0.689359 0.420705
vt 0.689359 0.420705
vt 0.689359 0.420705
vt 0.679670 0.420705
vt 0.679670 0.420705
vt 0.675344 0.418182
vt 0.693603 0.418182
vt 0.675344 0.418182
vt 0.657084 0.436442
vt 0.657084 0.436442
vt 0.657084 0.436442
vt 0.693603 0.418182
vt 0.675344 0.418182
vt 0.675344 0.418182
vt 0.675344 0.418182
vt 0.693603 0.418182
vt 0.693603 0.418182
vt 0.691081 0.433919
vt 0.675344 0.454701
vt 0.677866 0.433919
vt 0.691081 0.433919
vt 0.677866 0.433919
vt 0.677866 0.433919
vt 0.677866 0.433919
vt 0.691081 0.433919
vt 0.691081 0.433919
vt 0.691081 0.433919
vt 0.691081 0.433919
vt 0.691081 0.433919
vt 0.691081 0.433919
vt 0.693603 0.436442
vt 0.693603 0.454701
vt 0.675344 0.436442
vt 0.675344 0.454701
vt 0.675344 0.454701
vt 0.693603 0.454701
vt 0.693603 0.436442
vt 0.693603 0.436442
vt 0.693603 0.436442
vt 0.675344 0.436442
vt 0.675344 0.436442
vt 0.677866 0.433919
vt 0.675344 0.436442
vt 0.677866 0.433919
vt 0.675344 0.436442
vt 0.691081 0.433919
vt 0.677866 0.433919
vt 0.693603 0.418182
vt 0.691081 0.433919
vt 0.675344 0.454701
vt 0.693603 0.472961
vt 0.675344 0.454701
vt 0.711863 0.454701
vt 0.680162 0.420705
vt 0.711863 0.436442
vt 0.691081 0.420705
vt 0.693603 0.436442
vt 0.691081 0.433919
vt 0.691081 0.420705
vt 0.677866 0.433919
vt 0.677866 0.420705
vt 0.693603 0.418182
vt 0.693603 0.436442
vt 0.677866 0.420705
vt 0.691081 0.420705
vt 0.675344 0.436442
vt 0.691081 0.433919
vt 0.657084 0.436442
vt 0.677866 0.433919
vt 0.691081 0.433919
vt 0.693603 0.436442
vt 0.691081 0.433919
vt 0.677866 0.433919
vt 0.675344 0.436442
vt 0.657084 0.436442
vt 0.691081 0.420705
vt 0.689359 0.420705
vt 0.677866 0.420705
vt 0.677866 0.420705
vt 0.679670 0.420705
vt 0.679670 0.420705
vt 0.688876 0.420705
vt 0.689359 0.420705
vt 0.693603 0.418182
vt 0.657084 0.436442
vt 0.693603 0.418182
vt 0.675344 0.418182
vt 0.693603 0.454701
vt 0.691081 0.433919
vt 0.677866 0.433919
vt 0.691081 0.433919
vt 0.691081 0.433919
vt 0.675344 0.436442
vt 0.693603 0.454701
vt 0.693603 0.436442
vt 0.675344 0.454701
vt 0.693603 0.436442
vn -1.0000 0.0000 0.0000
vn -0.0000 0.0000 -1.0000
vn 0.0000 -1.0000 0.0000
vn 0.0000 0.0000 1.0000
vn -0.2084 0.9780 0.0000
vn -0.0016 0.0054 1.0000
vn -0.0169 -0.0705 -0.9974
vn 0.0000 0.0059 1.0000
vn 0.0000 1.0000 0.0000
vn 1.0000 0.0000 0.0000
vn -0.9373 0.3485 0.0000
vn 0.9515 -0.3078 0.0000
vn 0.9593 -0.2824 0.0000
vn -0.9842 0.1773 0.0000
vn 0.0000 -0.5112 -0.8595
vn 0.0000 0.4567 0.8896
vn -0.9515 -0.3078 0.0000
vn 0.9373 0.3485 0.0000
vn 0.9780 0.2084 0.0000
vn -0.0017 0.0078 1.0000
vn 0.0177 -0.0832 -0.9964
vn 0.2084 -0.9780 0.0000
vn -0.9593 -0.2824 0.0000
vn 0.1400 -0.4754 -0.8686
vn 0.2824 -0.9593 0.0000
vn -0.2824 0.9593 0.0000
vn 0.9999 -0.0129 0.0000
vn 0.9998 0.0000 0.0213
vn 0.9998 0.0000 -0.0213
vn 0.9999 0.0170 0.0000
vn 0.0000 -0.0869 -0.9962
vn 0.0918 0.3825 0.9194
usemtl color_picker
s off
f 59/1/1 53/2/1 57/3/1
f 91/4/2 110/5/2 80/6/2
f 74/7/3 199/8/3 77/9/3
f 78/10/3 58/11/3 75/12/3
f 65/13/2 1/14/2 54/15/2
f 62/16/4 76/17/4 69/18/4
f 152/19/5 161/20/5 149/21/5
f 102/22/6 170/23/6 63/24/6
f 81/25/7 95/26/7 93/27/7
f 71/28/8 104/29/8 9/30/8
f 109/31/9 113/32/9 111/33/9
f 79/34/10 112/35/10 83/36/10
f 114/37/4 181/38/4 89/39/4
f 87/40/4 14/41/4 115/42/4
f 103/43/11 143/44/11 119/45/11
f 108/46/4 142/47/4 17/48/4
f 126/49/12 139/50/12 99/51/12
f 101/52/2 137/53/2 97/54/2
f 66/55/13 107/56/13 70/57/13
f 88/58/14 96/59/14 131/60/14
f 55/61/15 123/62/15 68/63/15
f 85/64/16 130/65/16 127/66/16
f 147/67/3 29/68/3 136/69/3
f 25/70/9 145/71/9 144/72/9
f 24/73/17 148/74/17 132/75/17
f 23/76/4 30/77/4 36/78/4
f 125/79/18 28/80/18 20/81/18
f 18/82/2 27/83/2 19/84/2
f 151/85/19 86/86/19 154/87/19
f 150/88/19 100/89/19 33/90/19
f 158/91/19 35/92/19 156/93/19
f 153/94/19 129/95/19 159/96/19
f 164/97/19 165/98/19 162/99/19
f 160/100/20 38/101/20 3/102/20
f 4/103/21 166/104/21 157/105/21
f 21/106/22 40/107/22 22/108/22
f 171/109/23 174/110/23 175/111/23
f 121/112/24 172/113/24 176/114/24
f 64/115/25 42/116/25 10/117/25
f 122/118/26 43/119/26 105/120/26
f 183/121/27 197/122/27 186/123/27
f 118/124/9 188/125/9 15/126/9
f 7/127/3 177/128/3 94/129/3
f 8/130/2 184/131/2 16/132/2
f 47/133/28 190/134/28 198/135/28
f 67/136/2 195/137/2 5/138/2
f 6/139/4 191/140/4 72/141/4
f 12/142/9 192/143/9 11/144/9
f 48/145/29 194/146/29 182/147/29
f 50/148/30 45/149/30 46/150/30
f 59/1/1 61/151/1 53/2/1
f 91/4/2 116/152/2 110/5/2
f 74/7/3 196/153/3 199/8/3
f 78/10/3 60/154/3 58/11/3
f 65/13/2 73/155/2 1/14/2
f 62/16/4 2/156/4 76/17/4
f 152/19/5 163/157/5 161/20/5
f 102/22/6 173/158/6 170/23/6
f 81/25/31 98/159/31 95/26/31
f 71/28/8 106/160/8 104/29/8
f 109/31/9 117/161/9 113/32/9
f 79/34/10 13/162/10 112/35/10
f 114/37/4 187/163/4 181/38/4
f 87/40/4 84/164/4 14/41/4
f 103/43/11 141/165/11 143/44/11
f 108/46/4 133/166/4 142/47/4
f 126/49/12 135/167/12 139/50/12
f 101/52/2 140/168/2 137/53/2
f 66/55/13 124/169/13 107/56/13
f 88/58/14 92/170/14 96/59/14
f 55/61/15 120/171/15 123/62/15
f 85/64/32 90/172/32 130/65/32
f 147/67/3 138/173/3 29/68/3
f 25/70/9 134/174/9 145/71/9
f 24/73/17 32/175/17 148/74/17
f 23/76/4 31/176/4 30/77/4
f 125/79/18 146/177/18 28/80/18
f 18/82/2 26/178/2 27/83/2
f 151/85/19 82/179/19 86/86/19
f 150/88/19 155/180/19 100/89/19
f 158/91/19 128/181/19 35/92/19
f 153/94/19 34/182/19 129/95/19
f 164/97/19 167/183/19 165/98/19
f 160/100/20 168/184/20 38/101/20
f 4/103/21 37/185/21 166/104/21
f 21/106/22 39/186/22 40/107/22
f 171/109/23 169/187/23 174/110/23
f 121/112/24 56/188/24 172/113/24
f 64/115/25 41/189/25 42/116/25
f 122/118/26 44/190/26 43/119/26
f 183/121/27 200/191/27 197/122/27
f 118/124/9 185/192/9 188/125/9
f 7/127/3 180/193/3 177/128/3
f 8/130/2 178/194/2 184/131/2
f 47/133/28 179/195/28 190/134/28
f 67/136/2 193/196/2 195/137/2
f 6/139/4 52/197/4 191/140/4
f 12/142/9 189/198/9 192/143/9
f 48/145/29 51/199/29 194/146/29
f 50/148/30 49/200/30 45/149/30
