# Blender v3.5.1 OBJ File: 'hallway.blend'
# www.blender.org
mtllib debug_0004_dec.mtl
o Cube.024_Cube.049
v -68.159081 -6.621571 346.720062
v -68.159081 -6.621571 399.967529
v -68.159081 45.319786 346.720062
v -68.159081 45.319786 399.967529
v 78.523727 -6.621571 346.720062
v 78.523727 -6.621571 399.967529
v 78.523727 45.319786 346.720062
v 78.523727 45.319786 399.967529
v 72.626984 40.422974 394.947571
v 72.626984 40.422974 351.739990
v 72.626984 -1.724760 351.739990
v 72.626984 -1.724760 394.947571
v -63.278809 40.422974 394.947571
v -63.278809 40.422974 351.739990
v -63.278809 -1.724760 351.739990
v -63.278809 -1.724760 394.947571
vt 0.321626 0.706575
vt 0.333864 0.694336
vt 0.333864 0.706575
vt 0.321626 0.694336
vt 0.333864 0.682098
vt 0.321626 0.669860
vt 0.333864 0.657621
vt 0.333864 0.669860
vt 0.346103 0.669860
vt 0.346103 0.682098
vt 0.309388 0.682098
vt 0.321626 0.682098
vt 0.321626 0.669860
vt 0.321626 0.682098
vt 0.321626 0.682098
vt 0.333864 0.669860
vt 0.333864 0.682098
vt 0.333864 0.682098
vt 0.333864 0.669860
vt 0.321626 0.669860
vt 0.321626 0.657621
vt 0.309388 0.669860
vn -1.0000 0.0000 0.0000
vn 0.0000 1.0000 0.0000
vn 0.0000 -1.0000 0.0000
vn 0.0000 0.0000 -1.0000
vn 0.0000 0.0000 1.0000
vn 1.0000 0.0000 0.0000
usemtl None
s off
f 2/1/1 3/2/1 1/3/1
f 4/4/2 7/5/2 3/2/2
f 6/6/3 1/7/3 5/8/3
f 7/5/4 1/9/4 3/10/4
f 4/11/5 6/6/5 8/12/5
f 12/13/4 13/14/4 9/15/4
f 13/14/6 15/16/6 14/17/6
f 9/15/3 14/17/3 10/18/3
f 11/19/2 16/20/2 12/13/2
f 10/18/5 15/16/5 11/19/5
f 8/12/6 5/8/6 7/5/6
f 11/19/1 9/15/1 10/18/1
f 2/1/1 4/4/1 3/2/1
f 4/4/2 8/12/2 7/5/2
f 6/6/3 2/21/3 1/7/3
f 7/5/4 5/8/4 1/9/4
f 4/11/5 2/22/5 6/6/5
f 12/13/4 16/20/4 13/14/4
f 13/14/6 16/20/6 15/16/6
f 9/15/3 13/14/3 14/17/3
f 11/19/2 15/16/2 16/20/2
f 10/18/5 14/17/5 15/16/5
f 8/12/6 6/6/6 5/8/6
f 11/19/1 12/13/1 9/15/1
