# Blender v3.5.1 OBJ File: 'hallway.blend'
# www.blender.org
mtllib debug_0004_col.mtl
o Cube.002_Cube.005
v -68.159081 -6.621571 346.720062
v -68.159081 -6.621571 399.967529
v -68.159081 45.319786 346.720062
v -68.159081 45.319786 399.967529
v 294.000458 -6.621571 346.720062
v 294.000458 -6.621571 399.967529
v 294.000458 45.319786 346.720062
v 294.000458 45.319786 399.967529
v 288.103699 40.422974 394.947571
v 288.103699 40.422974 351.739990
v 288.103699 -1.724760 351.739990
v 288.103699 -1.724760 394.947571
v -63.278809 40.422974 394.947571
v -63.278809 40.422974 351.739990
v -63.278809 -1.724760 351.739990
v -63.278809 -1.724760 394.947571
v 241.685028 45.319786 346.720062
v 241.685028 45.319786 399.967529
v 241.685028 -6.621571 346.720062
v 241.685028 -6.621571 399.967529
v 247.640579 -1.724760 394.947571
v 247.668900 40.422974 394.947571
v 247.668900 40.422974 351.739990
v 247.640579 -1.724760 351.739990
v 288.103699 45.321068 394.947571
v 288.103699 45.321068 351.739990
v 247.668900 45.321068 394.947571
v 247.668900 45.321068 351.739990
v 294.000458 220.593292 346.720062
v 294.000458 220.593292 399.967529
v 241.685028 220.593292 346.720062
v 241.685028 220.593292 399.967529
v 288.103699 220.594559 394.947571
v 288.103699 220.594559 351.739990
v 247.668900 220.594559 394.947571
v 247.668900 220.594559 351.739990
vt 0.304401 0.472800
vt 0.316639 0.460562
vt 0.316639 0.472800
vt 0.316639 0.436085
vt 0.316639 0.448324
vt 0.316639 0.436085
vt 0.304401 0.434317
vt 0.316639 0.423847
vt 0.316639 0.434317
vt 0.316639 0.448324
vt 0.318407 0.436085
vt 0.318407 0.448324
vt 0.292162 0.448324
vt 0.302633 0.436085
vt 0.302633 0.448324
vt 0.304401 0.436085
vt 0.304401 0.448324
vt 0.304401 0.448324
vt 0.316639 0.436085
vt 0.316639 0.448324
vt 0.304401 0.436085
vt 0.304401 0.448324
vt 0.316639 0.436085
vt 0.304401 0.448324
vt 0.316639 0.448324
vt 0.304401 0.436085
vt 0.328877 0.436085
vt 0.328877 0.448324
vt 0.304401 0.460562
vt 0.316639 0.450091
vt 0.304401 0.436085
vt 0.316639 0.448324
vt 0.304401 0.448324
vt 0.316639 0.448324
vt 0.304401 0.448324
vt 0.316639 0.448324
vt 0.316639 0.448324
vt 0.304401 0.450091
vt 0.316639 0.450091
vt 0.316639 0.448324
vt 0.302633 0.448324
vt 0.304401 0.448324
vt 0.304401 0.448324
vt 0.304401 0.448324
vt 0.304401 0.423847
vt 0.292162 0.436085
vt 0.318407 0.448324
vt 0.304401 0.450091
vn -1.0000 0.0000 0.0000
vn 0.0000 0.0000 1.0000
vn 0.0000 -1.0000 0.0000
vn 0.0000 0.0000 -1.0000
vn 1.0000 0.0000 0.0000
vn 0.0000 1.0000 0.0000
usemtl Material.004
s off
f 2/1/1 3/2/1 1/3/1
f 11/4/2 23/5/2 24/6/2
f 20/7/3 1/8/3 19/9/3
f 7/10/4 19/11/4 17/12/4
f 4/13/2 20/14/2 18/15/2
f 21/16/4 13/17/4 22/18/4
f 13/17/5 15/19/5 14/20/5
f 22/18/3 14/20/3 23/5/3
f 24/6/6 16/21/6 21/16/6
f 24/6/2 14/20/2 15/19/2
f 8/22/5 5/23/5 7/10/5
f 11/4/1 9/24/1 10/25/1
f 18/15/2 6/26/2 8/22/2
f 17/12/4 1/27/4 3/28/4
f 6/26/3 19/9/3 5/23/3
f 4/29/6 17/30/6 3/2/6
f 11/4/6 21/16/6 12/31/6
f 10/25/2 28/32/2 23/5/2
f 12/31/4 22/18/4 9/24/4
f 23/5/5 27/33/5 22/18/5
f 9/24/1 26/34/1 10/25/1
f 22/18/4 25/35/4 9/24/4
f 17/12/4 29/36/4 7/10/4
f 26/34/2 36/37/2 28/32/2
f 18/38/1 31/39/1 17/30/1
f 25/35/1 34/40/1 26/34/1
f 8/22/2 32/41/2 18/15/2
f 28/32/5 35/42/5 27/33/5
f 27/33/4 33/43/4 25/35/4
f 7/10/5 30/44/5 8/22/5
f 2/1/1 4/29/1 3/2/1
f 11/4/2 10/25/2 23/5/2
f 20/7/3 2/45/3 1/8/3
f 7/10/4 5/23/4 19/11/4
f 4/13/2 2/46/2 20/14/2
f 21/16/4 16/21/4 13/17/4
f 13/17/5 16/21/5 15/19/5
f 22/18/3 13/17/3 14/20/3
f 24/6/6 15/19/6 16/21/6
f 24/6/2 23/5/2 14/20/2
f 8/22/5 6/26/5 5/23/5
f 11/4/1 12/31/1 9/24/1
f 18/15/2 20/14/2 6/26/2
f 17/12/4 19/11/4 1/27/4
f 6/26/3 20/7/3 19/9/3
f 4/29/6 18/38/6 17/30/6
f 11/4/6 24/6/6 21/16/6
f 10/25/2 26/34/2 28/32/2
f 12/31/4 21/16/4 22/18/4
f 23/5/5 28/32/5 27/33/5
f 9/24/1 25/35/1 26/34/1
f 22/18/4 27/33/4 25/35/4
f 17/12/4 31/47/4 29/36/4
f 26/34/2 34/40/2 36/37/2
f 18/38/1 32/48/1 31/39/1
f 25/35/1 33/43/1 34/40/1
f 8/22/2 30/44/2 32/41/2
f 28/32/5 36/37/5 35/42/5
f 27/33/4 35/42/4 33/43/4
f 7/10/5 29/36/5 30/44/5
