# Blender v3.5.0 OBJ File: 'BlenderExportTestMap.blend'
# www.blender.org
mtllib debug_0007_col.mtl
o Cube.129_Cube.193
v -45.000000 -45.000000 -45.000000
v -45.000000 -45.000000 45.000000
v -35.019871 56.513126 -36.731853
v -35.019871 56.513126 19.747620
v 45.000000 -45.000000 -45.000000
v 45.000000 -45.000000 45.000000
v 32.566608 29.374657 -32.566608
v 32.566608 29.374657 32.566608
v -45.000000 45.000000 45.000000
v -45.000000 45.000000 -45.000000
v 45.000000 45.000000 -45.000000
v 45.000000 45.000000 45.000000
v -32.566608 -24.373898 32.566608
v -32.566608 -24.373898 -32.566608
v 32.566608 -24.373898 -32.566608
v 32.566608 -24.373898 32.566608
v -70.165260 130.469330 44.495335
v -70.165260 130.469330 -95.835175
v 70.165260 130.469330 -95.835175
v 70.165260 130.469330 44.495335
v -48.325500 118.956207 14.299049
v -48.325500 118.956207 -37.243309
v 50.778767 130.469330 -76.448685
v 50.778767 130.469330 25.108843
v -31.115089 235.504318 44.495331
v -31.115089 235.504318 -95.835175
v 31.115089 235.504318 -95.835175
v 31.115089 235.504318 44.495331
v -22.518064 217.832748 25.108839
v -22.518064 217.832748 -76.448677
v 22.518064 217.832748 -76.448677
v 22.518064 217.832748 25.108839
v -32.566608 45.000000 32.566608
v -32.566608 45.000000 -32.566608
v -50.778767 130.469330 25.108843
v -50.778767 130.469330 -76.448685
v -84.147118 46.044888 19.747620
v -84.147118 46.044888 -36.731853
v -97.452744 108.487976 14.299049
v -97.452744 108.487976 -37.243309
v -87.169731 32.583710 45.000000
v -87.169731 32.583710 -45.000000
v -112.334991 118.053040 44.495335
v -112.334991 118.053040 -95.835175
v 151.151627 29.374657 32.566608
v 151.151627 29.374657 -32.566608
v 151.151627 -24.373898 32.566608
v 151.151627 -24.373898 -32.566608
v 150.886383 45.000000 45.000000
v 150.886383 45.000000 -45.000000
v 150.886383 -45.000000 -45.000000
v 150.886383 -45.000000 45.000000
vt 0.625000 0.000000
vt 0.375000 0.250000
vt 0.375000 0.000000
vt 0.590463 0.465463
vt 0.590463 0.284537
vt 0.590463 0.284537
vt 0.375000 0.750000
vt 0.625000 0.750000
vt 0.625000 0.750000
vt 0.375000 1.000000
vt 0.375000 0.500000
vt 0.125000 0.750000
vt 0.125000 0.500000
vt 0.875000 0.500000
vt 0.625000 0.500000
vt 0.440973 0.284537
vt 0.560277 0.284537
vt 0.560277 0.284537
vt 0.875000 0.500000
vt 0.875000 0.500000
vt 0.590463 0.465463
vt 0.409537 0.465463
vt 0.409537 0.284537
vt 0.409537 0.284537
vt 0.409537 0.465463
vt 0.409537 0.465463
vt 0.625000 0.250000
vt 0.375000 0.250000
vt 0.375000 0.250000
vt 0.625000 0.500000
vt 0.875000 0.500000
vt 0.409537 0.284537
vt 0.590463 0.284537
vt 0.590463 0.284537
vt 0.590463 0.465463
vt 0.409537 0.465463
vt 0.375000 0.500000
vt 0.409537 0.465463
vt 0.409537 0.284537
vt 0.375000 0.500000
vt 0.125000 0.500000
vt 0.625000 0.500000
vt 0.125000 0.500000
vt 0.434237 0.284537
vt 0.566895 0.284537
vt 0.440973 0.284537
vt 0.566895 0.284537
vt 0.434237 0.284537
vt 0.375000 0.250000
vt 0.625000 0.250000
vt 0.375000 0.250000
vt 0.125000 0.500000
vt 0.125000 0.500000
vt 0.625000 0.250000
vt 0.590463 0.465463
vt 0.375000 0.750000
vt 0.409537 0.465463
vt 0.590463 0.465463
vt 0.590463 0.465463
vt 0.625000 0.500000
vt 0.375000 0.500000
vt 0.625000 1.000000
vt 0.875000 0.750000
vt 0.875000 0.500000
vt 0.625000 0.250000
vt 0.625000 0.250000
vn -1.0000 0.0000 0.0000
vn -0.0000 0.0000 -1.0000
vn 0.0000 -1.0000 0.0000
vn 0.0000 0.0000 1.0000
vn -0.2084 0.9780 0.0000
vn -0.0016 0.0054 1.0000
vn -0.0169 -0.0705 -0.9974
vn 0.0000 0.0059 1.0000
vn 0.0000 1.0000 0.0000
vn 1.0000 0.0000 0.0000
vn -0.9373 0.3485 0.0000
vn 0.9515 -0.3078 0.0000
vn 0.9593 -0.2824 0.0000
vn -0.9842 0.1773 0.0000
vn 0.0000 -0.5112 -0.8595
vn 0.0000 0.4567 0.8896
vn -0.9515 -0.3078 0.0000
vn 0.9373 0.3485 0.0000
vn 0.9780 0.2084 0.0000
vn -0.0017 0.0078 1.0000
vn 0.0177 -0.0832 -0.9964
vn 0.2084 -0.9780 0.0000
vn -0.9593 -0.2824 0.0000
vn 0.1400 -0.4754 -0.8686
vn 0.2824 -0.9593 0.0000
vn -0.2824 0.9593 0.0000
vn 0.9999 -0.0129 0.0000
vn 0.9998 0.0000 0.0213
vn 0.9998 0.0000 -0.0213
vn 0.9999 0.0170 0.0000
vn 0.0000 -0.0869 -0.9962
vn 0.0918 0.3825 0.9194
usemtl None
s off
f 2/1/1 10/2/1 1/3/1
f 8/4/2 13/5/2 33/6/2
f 5/7/3 52/8/3 6/9/3
f 6/9/3 1/10/3 5/7/3
f 11/11/2 1/12/2 10/13/2
f 9/14/4 6/9/4 12/15/4
f 3/16/5 37/17/5 4/18/5
f 17/19/6 41/20/6 9/14/6
f 33/6/7 24/21/7 8/4/7
f 12/15/8 17/19/8 9/14/8
f 13/5/9 15/22/9 14/23/9
f 33/6/10 14/23/10 34/24/10
f 15/22/4 46/25/4 7/26/4
f 7/26/4 14/23/4 15/22/4
f 17/27/11 26/28/11 18/29/11
f 20/30/4 25/31/4 17/19/4
f 36/32/12 29/33/12 35/34/12
f 35/34/2 32/35/2 24/21/2
f 11/11/13 20/30/13 12/15/13
f 7/26/14 24/21/14 23/36/14
f 10/13/15 19/37/15 11/11/15
f 34/24/16 23/36/16 36/32/16
f 31/38/3 29/33/3 30/39/3
f 25/31/9 27/40/9 26/41/9
f 24/21/17 31/38/17 23/36/17
f 23/36/4 30/39/4 36/32/4
f 19/37/18 28/42/18 20/30/18
f 18/43/2 27/40/2 19/37/2
f 4/18/19 34/24/19 3/16/19
f 4/18/19 35/34/19 33/6/19
f 22/44/19 35/34/19 21/45/19
f 3/16/19 36/32/19 22/44/19
f 38/46/19 39/47/19 37/17/19
f 22/44/20 38/46/20 3/16/20
f 4/18/21 39/47/21 21/45/21
f 21/45/22 40/48/22 22/44/22
f 42/49/23 43/50/23 44/51/23
f 18/43/24 42/52/24 44/53/24
f 9/54/25 42/49/25 10/2/25
f 18/29/26 43/50/26 17/27/26
f 47/55/27 51/56/27 48/57/27
f 16/58/9 48/57/9 15/22/9
f 7/26/3 45/59/3 8/4/3
f 8/4/2 47/55/2 16/58/2
f 47/55/28 49/60/28 52/8/28
f 11/11/2 51/56/2 5/7/2
f 6/9/4 49/60/4 12/15/4
f 12/15/9 50/61/9 11/11/9
f 48/57/29 50/61/29 46/25/29
f 50/61/30 45/59/30 46/25/30
f 2/1/1 9/54/1 10/2/1
f 8/4/2 16/58/2 13/5/2
f 5/7/3 51/56/3 52/8/3
f 6/9/3 2/62/3 1/10/3
f 11/11/2 5/7/2 1/12/2
f 9/14/4 2/63/4 6/9/4
f 3/16/5 38/46/5 37/17/5
f 17/19/6 43/64/6 41/20/6
f 33/6/31 35/34/31 24/21/31
f 12/15/8 20/30/8 17/19/8
f 13/5/9 16/58/9 15/22/9
f 33/6/10 13/5/10 14/23/10
f 15/22/4 48/57/4 46/25/4
f 7/26/4 34/24/4 14/23/4
f 17/27/11 25/65/11 26/28/11
f 20/30/4 28/42/4 25/31/4
f 36/32/12 30/39/12 29/33/12
f 35/34/2 29/33/2 32/35/2
f 11/11/13 19/37/13 20/30/13
f 7/26/14 8/4/14 24/21/14
f 10/13/15 18/43/15 19/37/15
f 34/24/32 7/26/32 23/36/32
f 31/38/3 32/35/3 29/33/3
f 25/31/9 28/42/9 27/40/9
f 24/21/17 32/35/17 31/38/17
f 23/36/4 31/38/4 30/39/4
f 19/37/18 27/40/18 28/42/18
f 18/43/2 26/41/2 27/40/2
f 4/18/19 33/6/19 34/24/19
f 4/18/19 21/45/19 35/34/19
f 22/44/19 36/32/19 35/34/19
f 3/16/19 34/24/19 36/32/19
f 38/46/19 40/48/19 39/47/19
f 22/44/20 40/48/20 38/46/20
f 4/18/21 37/17/21 39/47/21
f 21/45/22 39/47/22 40/48/22
f 42/49/23 41/66/23 43/50/23
f 18/43/24 10/13/24 42/52/24
f 9/54/25 41/66/25 42/49/25
f 18/29/26 44/51/26 43/50/26
f 47/55/27 52/8/27 51/56/27
f 16/58/9 47/55/9 48/57/9
f 7/26/3 46/25/3 45/59/3
f 8/4/2 45/59/2 47/55/2
f 47/55/28 45/59/28 49/60/28
f 11/11/2 50/61/2 51/56/2
f 6/9/4 52/8/4 49/60/4
f 12/15/9 49/60/9 50/61/9
f 48/57/29 51/56/29 50/61/29
f 50/61/30 49/60/30 45/59/30
