# Blender v3.5.1 OBJ File: 'hallway.blend'
# www.blender.org
mtllib debug_0004_death_0000.mtl
o Cube.006_Cube.100
v 143.666718 -24.300713 268.329041
v 143.666718 -24.300713 331.971619
v 143.666718 39.341896 268.329041
v 143.666718 39.341896 331.971619
v 287.327728 -24.300713 268.329041
v 287.327728 -24.300713 331.971619
v 287.327728 39.341896 268.329041
v 287.327728 39.341896 331.971619
v 143.666718 39.341896 268.329041
v 143.666718 39.341896 268.329041
v 143.666718 -24.300713 268.329041
v 143.666718 -24.300713 268.329041
v 143.666718 -24.300713 331.971619
v 143.666718 -24.300713 331.971619
v 143.666718 39.341896 331.971619
v 143.666718 39.341896 331.971619
v 287.327728 39.341896 268.329041
v 287.327728 39.341896 268.329041
v 287.327728 39.341896 331.971619
v 287.327728 39.341896 331.971619
v 287.327728 -24.300713 268.329041
v 287.327728 -24.300713 268.329041
v 287.327728 -24.300713 331.971619
v 287.327728 -24.300713 331.971619
vt 0.625000 0.000000
vt 0.375000 0.250000
vt 0.375000 0.000000
vt 0.625000 0.250000
vt 0.375000 0.500000
vt 0.375000 0.250000
vt 0.625000 0.500000
vt 0.375000 0.750000
vt 0.375000 0.500000
vt 0.625000 0.750000
vt 0.375000 1.000000
vt 0.375000 0.750000
vt 0.375000 0.500000
vt 0.125000 0.750000
vt 0.125000 0.500000
vt 0.875000 0.500000
vt 0.625000 0.750000
vt 0.625000 0.500000
vt 0.625000 0.250000
vt 0.625000 0.500000
vt 0.625000 0.750000
vt 0.625000 1.000000
vt 0.375000 0.750000
vt 0.875000 0.750000
vn -1.0000 0.0000 0.0000
vn 0.0000 1.0000 0.0000
vn 1.0000 0.0000 0.0000
vn 0.0000 -1.0000 0.0000
vn 0.0000 0.0000 -1.0000
vn 0.0000 0.0000 1.0000
usemtl None
s off
f 13/1/1 9/2/1 11/3/1
f 16/4/2 17/5/2 10/6/2
f 20/7/3 21/8/3 18/9/3
f 24/10/4 12/11/4 22/12/4
f 7/13/5 1/14/5 3/15/5
f 4/16/6 6/17/6 8/18/6
f 13/1/1 15/19/1 9/2/1
f 16/4/2 19/20/2 17/5/2
f 20/7/3 23/21/3 21/8/3
f 24/10/4 14/22/4 12/11/4
f 7/13/5 5/23/5 1/14/5
f 4/16/6 2/24/6 6/17/6
