# Blender v3.5.1 OBJ File: 'map test_alpha.blend'
# www.blender.org
mtllib debug_0005_col.mtl
o Cube.014_Cube.024
v -39.294636 25.105431 354.649780
v -39.294636 25.105431 343.137146
v -39.294636 13.592778 354.649780
v -39.294636 13.592778 343.137146
v -50.807293 25.105431 354.649780
v -50.807293 25.105431 343.137146
v -50.807293 13.592778 354.649780
v -50.807293 13.592778 343.137146
vt 0.625000 0.000000
vt 0.375000 0.250000
vt 0.375000 0.000000
vt 0.625000 0.250000
vt 0.375000 0.500000
vt 0.375000 0.250000
vt 0.625000 0.500000
vt 0.375000 0.750000
vt 0.375000 0.500000
vt 0.625000 0.750000
vt 0.375000 1.000000
vt 0.375000 0.750000
vt 0.375000 0.500000
vt 0.125000 0.750000
vt 0.125000 0.500000
vt 0.875000 0.500000
vt 0.625000 0.750000
vt 0.625000 0.500000
vt 0.625000 0.250000
vt 0.625000 0.500000
vt 0.625000 0.750000
vt 0.625000 1.000000
vt 0.375000 0.750000
vt 0.875000 0.750000
vn 0.0000 0.0000 1.0000
vn 0.0000 0.0000 -1.0000
vn 0.0000 -1.0000 0.0000
vn 1.0000 0.0000 0.0000
vn 0.0000 1.0000 0.0000
vn -1.0000 0.0000 0.0000
usemtl Material.002
s off
f 5/1/1 3/2/1 1/3/1
f 2/4/2 8/5/2 6/6/2
f 3/7/3 8/8/3 4/9/3
f 1/10/4 4/11/4 2/12/4
f 5/13/5 2/14/5 6/15/5
f 7/16/6 6/17/6 8/18/6
f 5/1/1 7/19/1 3/2/1
f 2/4/2 4/20/2 8/5/2
f 3/7/3 7/21/3 8/8/3
f 1/10/4 3/22/4 4/11/4
f 5/13/5 1/23/5 2/14/5
f 7/16/6 5/24/6 6/17/6
