# Blender v3.5.0 OBJ File: 'Starting Facility_final.blend'
# www.blender.org
mtllib debug_0002_message_0002.mtl
o Rooms.006_Cube.069
v 208.140503 -25.847103 -168.926453
v 208.140503 -25.847103 -90.292374
v 208.140503 39.246880 -168.926453
v 208.140503 39.246880 -90.292374
v 257.340454 -25.847103 -168.926453
v 257.340454 -25.847103 -90.292374
v 257.340454 39.246880 -168.926453
v 257.340454 39.246880 -90.292374
vt 0.408029 0.951748
vt 0.408029 0.951748
vt 0.408029 0.951748
vt 0.408029 0.951748
vt 0.408029 0.951748
vt 0.408029 0.951748
vt 0.408029 0.951748
vt 0.408029 0.951748
vn 0.0000 -1.0000 0.0000
vn 0.0000 0.0000 1.0000
vn -1.0000 0.0000 0.0000
vn 1.0000 0.0000 0.0000
vn 0.0000 1.0000 0.0000
vn 0.0000 0.0000 -1.0000
usemtl tutorial_rotate
s off
f 5/1/1 2/2/1 1/3/1
f 6/4/2 4/5/2 2/2/2
f 3/6/3 2/2/3 4/5/3
f 6/4/4 7/7/4 8/8/4
f 4/5/5 7/7/5 3/6/5
f 1/3/6 7/7/6 5/1/6
f 5/1/1 6/4/1 2/2/1
f 6/4/2 8/8/2 4/5/2
f 3/6/3 1/3/3 2/2/3
f 6/4/4 5/1/4 7/7/4
f 4/5/5 8/8/5 7/7/5
f 1/3/6 3/6/6 7/7/6
