# Blender v3.5.1 OBJ File: 'map test_alpha1.blend'
# www.blender.org
mtllib debug_0004_dec.mtl
o Cube.011_Cube.029
v -53.343922 12.052868 345.378204
v -53.343922 12.052868 359.970673
v -53.343922 26.645348 345.378204
v -53.343922 26.645348 359.970673
v -38.751438 12.052868 345.378204
v -38.751438 12.052868 359.970673
v -38.751438 26.645348 345.378204
v -38.751438 26.645348 359.970673
v -53.343922 26.645348 345.378204
v -53.343922 26.645348 345.378204
v -53.343922 26.645348 345.378204
v -53.343922 12.052868 345.378204
v -53.343922 12.052868 345.378204
v -53.343922 12.052868 345.378204
v -53.343922 12.052868 345.378204
v -53.343922 12.052868 359.970673
v -53.343922 12.052868 359.970673
v -53.343922 12.052868 359.970673
v -53.343922 26.645348 359.970673
v -53.343922 26.645348 359.970673
v -53.343922 26.645348 359.970673
v -53.343922 26.645348 359.970673
v -38.751438 26.645348 345.378204
v -38.751438 26.645348 345.378204
v -38.751438 26.645348 345.378204
v -38.751438 26.645348 345.378204
v -38.751438 26.645348 359.970673
v -38.751438 26.645348 359.970673
v -38.751438 26.645348 359.970673
v -38.751438 12.052868 345.378204
v -38.751438 12.052868 345.378204
v -38.751438 12.052868 345.378204
v -38.751438 12.052868 359.970673
v -38.751438 12.052868 359.970673
v -38.751438 12.052868 359.970673
v -38.751438 12.052868 359.970673
vt 0.625000 0.000000
vt 0.375000 0.250000
vt 0.375000 0.000000
vt 0.625000 0.250000
vt 0.375000 0.500000
vt 0.375000 0.250000
vt 0.625000 0.500000
vt 0.375000 0.750000
vt 0.375000 0.500000
vt 0.625000 0.750000
vt 0.375000 1.000000
vt 0.375000 0.750000
vt 0.375000 0.500000
vt 0.125000 0.750000
vt 0.125000 0.500000
vt 0.875000 0.500000
vt 0.625000 0.750000
vt 0.625000 0.500000
vt 0.625000 0.000000
vt 0.625000 0.250000
vt 0.375000 0.250000
vt 0.625000 0.250000
vt 0.625000 0.500000
vt 0.375000 0.500000
vt 0.625000 0.500000
vt 0.625000 0.750000
vt 0.375000 0.750000
vt 0.625000 0.750000
vt 0.625000 1.000000
vt 0.375000 1.000000
vt 0.375000 0.500000
vt 0.375000 0.750000
vt 0.125000 0.750000
vt 0.875000 0.500000
vt 0.875000 0.750000
vt 0.625000 0.750000
vn -1.0000 0.0000 0.0000
vn 0.0000 1.0000 0.0000
vn 1.0000 0.0000 0.0000
vn 0.0000 -1.0000 0.0000
vn 0.0000 0.0000 -1.0000
vn 0.0000 0.0000 1.0000
usemtl None
s off
f 16/1/1 9/2/1 12/3/1
f 22/4/2 23/5/2 11/6/2
f 8/7/3 30/8/3 25/9/3
f 36/10/4 13/11/4 32/12/4
f 7/13/5 1/14/5 3/15/5
f 4/16/6 6/17/6 29/18/6
f 17/19/1 19/20/1 10/21/1
f 20/22/2 27/23/2 24/24/2
f 28/25/3 33/26/3 31/27/3
f 34/28/4 18/29/4 14/30/4
f 26/31/5 5/32/5 15/33/5
f 21/34/6 2/35/6 35/36/6
