# Blender v3.5.1 OBJ File: 'map test_alpha1.blend'
# www.blender.org
mtllib debug_0004_dec.mtl
o Cube.007_Cube.008
v -64.969086 0.373621 340.867859
v -64.969086 0.373621 394.152527
v -64.969086 61.500904 340.867859
v -64.969086 61.500904 394.152527
v 63.606583 0.373621 340.867859
v 63.606583 0.373621 394.152527
v 63.606583 61.500904 340.867859
v 63.606583 61.500904 394.152527
v -64.969086 0.373621 340.867859
v -64.969086 0.373621 394.152527
v -52.256992 0.373621 394.152527
v -52.256992 0.373621 340.867859
v -64.969086 0.373621 340.867859
v -64.969086 0.373621 394.152527
v -52.256992 0.373621 394.152527
v -52.256992 0.373621 340.867859
v 63.606583 57.633713 390.781494
v 63.606583 57.633713 344.238892
v 63.606583 4.240808 344.238892
v 63.606583 4.240808 390.781494
v -60.322083 57.633713 390.781494
v -60.322083 57.633713 344.238892
v -60.322083 4.240808 344.238892
v -60.322083 4.240808 390.781494
v -64.969086 61.500904 340.867859
v -64.969086 61.500904 340.867859
v -64.969086 61.500904 340.867859
v -64.969086 0.373621 340.867859
v -64.969086 0.373621 340.867859
v -64.969086 0.373621 340.867859
v -64.969086 0.373621 340.867859
v -64.969086 0.373621 340.867859
v -64.969086 0.373621 394.152527
v -64.969086 0.373621 394.152527
v -64.969086 0.373621 394.152527
v -64.969086 0.373621 394.152527
v -64.969086 0.373621 394.152527
v -64.969086 61.500904 394.152527
v -64.969086 61.500904 394.152527
v -64.969086 61.500904 394.152527
v -64.969086 61.500904 394.152527
v 63.606583 61.500904 340.867859
v 63.606583 61.500904 340.867859
v 63.606583 61.500904 340.867859
v 63.606583 61.500904 340.867859
v 63.606583 61.500904 340.867859
v 63.606583 61.500904 394.152527
v 63.606583 61.500904 394.152527
v 63.606583 61.500904 394.152527
v 63.606583 61.500904 394.152527
v 63.606583 0.373621 340.867859
v 63.606583 0.373621 340.867859
v 63.606583 0.373621 340.867859
v 63.606583 0.373621 340.867859
v 63.606583 0.373621 340.867859
v 63.606583 0.373621 340.867859
v 63.606583 0.373621 394.152527
v 63.606583 0.373621 394.152527
v 63.606583 0.373621 394.152527
v 63.606583 0.373621 394.152527
v 63.606583 0.373621 394.152527
v 63.606583 0.373621 394.152527
v 63.606583 0.373621 394.152527
v 63.606583 0.373621 394.152527
v -64.969086 0.373621 340.867859
v -52.256992 0.373621 394.152527
v -52.256992 0.373621 394.152527
v -64.969086 0.373621 394.152527
v -64.969086 0.373621 394.152527
v -52.256992 0.373621 340.867859
v -52.256992 0.373621 340.867859
v -52.256992 0.373621 340.867859
v -64.969086 0.373621 340.867859
v -64.969086 0.373621 340.867859
v 63.606583 57.633713 390.781494
v 63.606583 57.633713 390.781494
v 63.606583 57.633713 390.781494
v 63.606583 57.633713 390.781494
v 63.606583 57.633713 390.781494
v 63.606583 57.633713 344.238892
v 63.606583 57.633713 344.238892
v 63.606583 57.633713 344.238892
v 63.606583 57.633713 344.238892
v 63.606583 57.633713 344.238892
v 63.606583 57.633713 344.238892
v 63.606583 4.240808 344.238892
v 63.606583 4.240808 344.238892
v 63.606583 4.240808 344.238892
v 63.606583 4.240808 344.238892
v 63.606583 4.240808 390.781494
v 63.606583 4.240808 390.781494
v 63.606583 4.240808 390.781494
v 63.606583 4.240808 390.781494
v 63.606583 4.240808 390.781494
v -60.322083 57.633713 390.781494
v -60.322083 57.633713 390.781494
v -60.322083 57.633713 390.781494
v -60.322083 57.633713 390.781494
v -60.322083 57.633713 344.238892
v -60.322083 57.633713 344.238892
v -60.322083 57.633713 344.238892
v -60.322083 4.240808 344.238892
v -60.322083 4.240808 344.238892
v -60.322083 4.240808 344.238892
v -60.322083 4.240808 344.238892
v -60.322083 4.240808 390.781494
v -60.322083 4.240808 390.781494
v -60.322083 4.240808 390.781494
vt 0.000000 1.000000
vt 1.000000 0.000000
vt 0.000000 0.000000
vt 0.000000 1.000000
vt 1.000000 0.000000
vt 0.000000 0.000000
vt 1.000000 0.000000
vt 1.000000 1.000000
vt 1.000000 1.000000
vt 1.000000 0.000000
vt 0.000000 0.000000
vt 1.000000 0.000000
vt 1.000000 1.000000
vt 0.000000 0.000000
vt 0.000000 1.000000
vt 0.000000 1.000000
vt 1.000000 0.000000
vt 1.000000 1.000000
vt 1.000000 1.000000
vt 0.000000 0.000000
vt 1.000000 0.000000
vt 0.000000 1.000000
vt 0.000000 0.000000
vt 0.000000 0.000000
vt 0.000000 1.000000
vt 0.000000 0.000000
vt 0.000000 1.000000
vt 0.000000 0.000000
vt 1.000000 0.000000
vt 0.000000 0.000000
vt 1.000000 1.000000
vt 1.000000 0.000000
vt 1.000000 0.000000
vt 1.000000 1.000000
vt 1.000000 0.000000
vt 1.000000 0.000000
vt 0.000000 0.000000
vt 0.000000 1.000000
vt 0.000000 1.000000
vt 1.000000 0.000000
vt 1.000000 1.000000
vt 1.000000 0.000000
vt 1.000000 1.000000
vt 0.000000 0.000000
vt 1.000000 0.000000
vt 1.000000 0.000000
vt 1.000000 1.000000
vt 1.000000 1.000000
vt 1.000000 1.000000
vt 1.000000 0.000000
vt 1.000000 0.000000
vt 0.000000 0.000000
vt 0.000000 1.000000
vt 0.000000 1.000000
vt 0.000000 1.000000
vt 1.000000 1.000000
vt 1.000000 0.000000
vt 0.000000 1.000000
vt 1.000000 1.000000
vt 1.000000 0.000000
vt 1.000000 0.000000
vt 1.000000 0.000000
vt 1.000000 1.000000
vt 1.000000 0.000000
vt 0.000000 0.000000
vt 0.000000 0.000000
vt 1.000000 1.000000
vt 1.000000 0.000000
vt 0.000000 0.000000
vt 0.000000 1.000000
vt 0.000000 0.000000
vt 1.000000 0.000000
vt 1.000000 1.000000
vt 0.000000 1.000000
vt 0.000000 0.000000
vt 0.000000 1.000000
vt 0.000000 1.000000
vt 0.000000 0.000000
vt 0.000000 1.000000
vt 0.000000 0.000000
vt 0.000000 0.000000
vt 0.000000 0.000000
vt 1.000000 0.000000
vt 1.000000 0.000000
vt 1.000000 1.000000
vt 1.000000 1.000000
vt 1.000000 0.000000
vt 1.000000 1.000000
vt 1.000000 1.000000
vt 1.000000 0.000000
vt 0.000000 0.000000
vt 0.000000 0.000000
vt 0.000000 1.000000
vt 1.000000 0.000000
vt 1.000000 1.000000
vt 1.000000 1.000000
vt 1.000000 1.000000
vt 0.000000 1.000000
vt 0.000000 0.000000
vt 1.000000 0.000000
vt 1.000000 0.000000
vt 1.000000 1.000000
vt 1.000000 1.000000
vt 1.000000 1.000000
vt 1.000000 0.000000
vt 0.000000 0.000000
vt 0.000000 0.000000
vt 0.000000 1.000000
vn -1.0000 0.0000 0.0000
vn 0.0000 1.0000 0.0000
vn 1.0000 0.0000 0.0000
vn 0.0000 0.0000 -1.0000
vn 0.0000 0.0000 1.0000
vn 0.0000 -1.0000 0.0000
usemtl Material.009
s off
f 33/1/1 25/2/1 28/3/1
f 41/4/2 42/5/2 27/6/2
f 57/7/3 77/8/3 48/9/3
f 60/10/4 68/11/4 67/12/4
f 46/13/4 32/14/4 3/15/4
f 4/16/5 64/17/5 50/18/5
f 66/19/6 13/20/6 16/21/6
f 58/22/6 70/23/6 52/24/6
f 2/25/5 74/26/5 10/27/5
f 1/28/5 71/29/5 9/30/5
f 81/31/5 104/32/5 86/33/5
f 8/34/3 82/35/3 45/36/3
f 56/37/3 93/38/3 6/39/3
f 5/40/3 85/41/3 89/42/3
f 95/43/3 23/44/3 99/45/3
f 94/46/4 97/47/4 78/48/4
f 17/49/6 22/50/6 18/51/6
f 19/52/2 24/53/2 20/54/2
f 34/55/1 38/56/1 26/57/1
f 39/58/2 47/59/2 43/60/2
f 61/61/3 90/62/3 76/63/3
f 59/64/5 35/65/5 69/66/5
f 44/67/4 51/68/4 29/69/4
f 40/70/5 37/71/5 62/72/5
f 15/73/6 14/74/6 65/75/6
f 63/76/6 11/77/6 72/78/6
f 36/79/5 30/80/5 73/81/5
f 31/82/5 55/83/5 12/84/5
f 83/85/5 100/86/5 102/87/5
f 49/88/3 75/89/3 80/90/3
f 53/91/3 87/92/3 91/93/3
f 54/94/3 7/95/3 84/96/3
f 96/97/3 106/98/3 103/99/3
f 92/100/4 107/101/4 98/102/4
f 79/103/6 21/104/6 101/105/6
f 88/106/2 105/107/2 108/108/2
