# Blender v3.5.0 OBJ File: 'Starting Facility.blend'
# www.blender.org
mtllib debug_0001_death_0001.mtl
o Rooms.014_Cube.178
v -44.999981 -190.500015 68.000000
v -44.999981 -190.500015 78.800003
v -44.999981 -73.499985 68.000000
v -44.999981 -73.499985 78.800003
v 36.999962 -190.500015 68.000000
v 36.999962 -190.500015 78.800003
v 36.999962 -73.499985 68.000000
v 36.999962 -73.499985 78.800003
v 36.999962 -73.499985 68.000000
v 36.999962 -73.499985 68.000000
v -44.999981 -73.499985 68.000000
v -44.999981 -73.499985 68.000000
v -44.999981 -73.499985 78.800003
v -44.999981 -73.499985 78.800003
v 36.999962 -73.499985 78.800003
v 36.999962 -73.499985 78.800003
v -44.999981 -190.500015 68.000000
v -44.999981 -190.500015 68.000000
v 36.999962 -190.500015 68.000000
v 36.999962 -190.500015 68.000000
v 36.999962 -190.500015 78.800003
v 36.999962 -190.500015 78.800003
v -44.999981 -190.500015 78.800003
v -44.999981 -190.500015 78.800003
vt 0.408029 0.951748
vt 0.408029 0.951748
vt 0.408029 0.951748
vt 0.408029 0.951748
vt 0.408029 0.951748
vt 0.408029 0.951748
vt 0.408029 0.951748
vt 0.408029 0.951748
vt 0.408029 0.951748
vt 0.408029 0.951748
vt 0.408029 0.951748
vt 0.408029 0.951748
vt 0.408029 0.951748
vt 0.408029 0.951748
vt 0.408029 0.951748
vt 0.408029 0.951748
vt 0.408029 0.951748
vt 0.408029 0.951748
vt 0.408029 0.951748
vt 0.408029 0.951748
vt 0.408029 0.951748
vt 0.408029 0.951748
vt 0.408029 0.951748
vt 0.408029 0.951748
vn 0.0000 -1.0000 0.0000
vn 0.0000 0.0000 1.0000
vn -1.0000 0.0000 0.0000
vn 1.0000 0.0000 0.0000
vn 0.0000 1.0000 0.0000
vn 0.0000 0.0000 -1.0000
usemtl Material.005
s off
f 19/1/1 23/2/1 17/3/1
f 22/4/2 13/5/2 24/6/2
f 12/7/3 2/8/3 14/9/3
f 6/10/4 10/11/4 16/12/4
f 4/13/5 9/14/5 11/15/5
f 1/16/6 7/17/6 5/18/6
f 19/1/1 21/19/1 23/2/1
f 22/4/2 15/20/2 13/5/2
f 12/7/3 18/21/3 2/8/3
f 6/10/4 20/22/4 10/11/4
f 4/13/5 8/23/5 9/14/5
f 1/16/6 3/24/6 7/17/6
