# Blender v3.5.1 OBJ File: 'hallway.blend'
# www.blender.org
mtllib debug_0004_col.mtl
o Cube.023_Cube.046
v -68.159081 -6.621571 346.720062
v -68.159081 -6.621571 399.967529
v -68.159081 45.319786 346.720062
v -68.159081 45.319786 399.967529
v 78.523727 -6.621571 346.720062
v 78.523727 -6.621571 399.967529
v 78.523727 45.319786 346.720062
v 78.523727 45.319786 399.967529
v 72.626984 40.422974 394.947571
v 72.626984 40.422974 351.739990
v 72.626984 -1.724760 351.739990
v 72.626984 -1.724760 394.947571
v -63.278809 40.422974 394.947571
v -63.278809 40.422974 351.739990
v -63.278809 -1.724760 351.739990
v -63.278809 -1.724760 394.947571
v 78.523727 45.319786 399.967529
v 78.523727 45.319786 346.720062
v 78.523727 -6.621571 346.720062
v 78.523727 -6.621571 399.967529
vt 0.625000 0.000000
vt 0.375000 0.250000
vt 0.375000 0.000000
vt 0.625000 0.250000
vt 0.375000 0.500000
vt 0.625000 0.750000
vt 0.375000 1.000000
vt 0.375000 0.750000
vt 0.125000 0.750000
vt 0.125000 0.500000
vt 0.875000 0.500000
vt 0.625000 0.500000
vt 0.625000 0.750000
vt 0.625000 0.500000
vt 0.625000 0.500000
vt 0.375000 0.750000
vt 0.375000 0.500000
vt 0.375000 0.500000
vt 0.375000 0.750000
vt 0.625000 0.750000
vt 0.625000 0.500000
vt 0.375000 0.750000
vt 0.375000 0.500000
vt 0.625000 1.000000
vt 0.875000 0.750000
vt 0.625000 0.750000
vn -1.0000 0.0000 0.0000
vn 0.0000 1.0000 0.0000
vn 0.0000 -1.0000 0.0000
vn 0.0000 0.0000 -1.0000
vn 0.0000 0.0000 1.0000
vn 1.0000 0.0000 0.0000
usemtl None
s off
f 2/1/1 3/2/1 1/3/1
f 4/4/2 18/5/2 3/2/2
f 20/6/3 1/7/3 19/8/3
f 18/5/4 1/9/4 3/10/4
f 4/11/5 20/6/5 17/12/5
f 12/13/4 13/14/4 9/15/4
f 13/14/6 15/16/6 14/17/6
f 9/15/3 14/17/3 10/18/3
f 11/19/2 16/20/2 12/13/2
f 10/18/5 15/16/5 11/19/5
f 8/21/6 5/22/6 7/23/6
f 11/19/1 9/15/1 10/18/1
f 2/1/1 4/4/1 3/2/1
f 4/4/2 17/12/2 18/5/2
f 20/6/3 2/24/3 1/7/3
f 18/5/4 19/8/4 1/9/4
f 4/11/5 2/25/5 20/6/5
f 12/13/4 16/20/4 13/14/4
f 13/14/6 16/20/6 15/16/6
f 9/15/3 13/14/3 14/17/3
f 11/19/2 15/16/2 16/20/2
f 10/18/5 14/17/5 15/16/5
f 8/21/6 6/26/6 5/22/6
f 11/19/1 12/13/1 9/15/1
