# Blender v3.5.0 OBJ File: 'Starting Facility_final2.blend'
# www.blender.org
mtllib lab_0000_exitregion_0000.mtl
o exit_trigger_Cube.060
v -32.000008 -72.000000 -167.999985
v -32.000008 -72.000000 -15.999943
v -31.975960 68.000031 -167.999985
v -31.975960 68.000031 -15.999943
v 108.000023 -72.000000 -167.999985
v 108.000023 -72.000000 -15.999943
v 108.024078 68.000031 -167.999985
v 108.024078 68.000031 -15.999943
vt 0.408029 0.951748
vt 0.408029 0.951748
vt 0.408029 0.951748
vt 0.408029 0.951748
vt 0.408029 0.951748
vt 0.408029 0.951748
vt 0.408029 0.951748
vt 0.408029 0.951748
vn 0.0000 1.0000 0.0000
vn 1.0000 -0.0002 0.0000
vn -1.0000 0.0002 0.0000
vn 0.0000 0.0000 -1.0000
vn 0.0000 -1.0000 0.0000
vn 0.0000 0.0000 1.0000
usemtl Material.005
s off
f 7/1/1 4/2/1 8/3/1
f 5/4/2 8/3/2 6/5/2
f 2/6/3 3/7/3 1/8/3
f 5/4/4 3/7/4 7/1/4
f 5/4/5 2/6/5 1/8/5
f 4/2/6 6/5/6 8/3/6
f 7/1/1 3/7/1 4/2/1
f 5/4/2 7/1/2 8/3/2
f 2/6/3 4/2/3 3/7/3
f 5/4/4 1/8/4 3/7/4
f 5/4/5 6/5/5 2/6/5
f 4/2/6 2/6/6 6/5/6
