# Blender v3.5.0 OBJ File: 'Starting Facility_final3.blend'
# www.blender.org
mtllib lab_0001_exitregion_0000.mtl
o exit_2_Cube.068
v 53.812656 -306.028442 84.000000
v 53.812656 -306.028442 167.116776
v 143.074142 -306.028442 84.000000
v 143.074142 -306.028442 167.116776
v 53.812656 -390.879272 167.116776
v 53.812656 -390.879272 84.000000
v 143.074142 -390.879272 84.000000
v 143.074142 -390.879272 167.116776
vt 0.888909 0.959824
vt 0.888909 0.959824
vt 0.888909 0.959824
vt 0.888909 0.959824
vt 0.888909 0.959824
vt 0.888909 0.959824
vt 0.888909 0.959824
vt 0.888909 0.959824
vn 0.0000 1.0000 0.0000
vn 0.0000 -1.0000 0.0000
vn 1.0000 0.0000 0.0000
vn 0.0000 0.0000 -1.0000
vn 0.0000 0.0000 1.0000
vn -1.0000 0.0000 0.0000
usemtl Material.005
s off
f 2/1/1 3/2/1 1/3/1
f 7/4/2 5/5/2 6/6/2
f 8/7/3 3/2/3 4/8/3
f 7/4/4 1/3/4 3/2/4
f 5/5/5 4/8/5 2/1/5
f 6/6/6 2/1/6 1/3/6
f 2/1/1 4/8/1 3/2/1
f 7/4/2 8/7/2 5/5/2
f 8/7/3 7/4/3 3/2/3
f 7/4/4 6/6/4 1/3/4
f 5/5/5 8/7/5 4/8/5
f 6/6/6 5/5/6 2/1/6
