# Blender v3.5.0 OBJ File: 'Starting Facility_final.blend'
# www.blender.org
mtllib lab_0002_message_0000.mtl
o Rooms.005_Cube.067
v 59.400009 -23.400007 -168.400009
v 59.400009 -23.400007 -127.599991
v 59.400009 23.400007 -168.400009
v 59.400009 23.400007 -127.599991
v 108.599968 -23.400007 -168.400009
v 108.599968 -23.400007 -127.599991
v 108.599968 23.400007 -168.400009
v 108.599968 23.400007 -127.599991
vt 0.408029 0.951748
vt 0.408029 0.951748
vt 0.408029 0.951748
vt 0.408029 0.951748
vt 0.408029 0.951748
vt 0.408029 0.951748
vt 0.408029 0.951748
vt 0.408029 0.951748
vn 0.0000 -1.0000 0.0000
vn 0.0000 0.0000 1.0000
vn -1.0000 0.0000 0.0000
vn 1.0000 0.0000 0.0000
vn 0.0000 1.0000 0.0000
vn 0.0000 0.0000 -1.0000
usemtl tutorial_rotate
s off
f 5/1/1 2/2/1 1/3/1
f 6/4/2 4/5/2 2/2/2
f 3/6/3 2/2/3 4/5/3
f 6/4/4 7/7/4 8/8/4
f 4/5/5 7/7/5 3/6/5
f 1/3/6 7/7/6 5/1/6
f 5/1/1 6/4/1 2/2/1
f 6/4/2 8/8/2 4/5/2
f 3/6/3 1/3/3 2/2/3
f 6/4/4 5/1/4 7/7/4
f 4/5/5 8/8/5 7/7/5
f 1/3/6 3/6/6 7/7/6
