# Blender v3.5.0 OBJ File: 'tutorial.blend'
# www.blender.org
mtllib tutorial_0003_message_0016.mtl
o Cube.020_Cube.027
v 555.352051 773.298950 549.719055
v 555.352051 773.298950 645.182983
v 658.580933 659.684448 549.719055
v 658.580933 773.298950 549.719055
v 658.580933 773.298950 645.182983
v 555.352051 659.684448 645.182983
v 555.352051 659.684448 549.719055
v 658.580933 659.684448 645.182983
vt 0.625000 0.000000
vt 0.375000 0.250000
vt 0.375000 0.000000
vt 0.625000 0.250000
vt 0.375000 0.500000
vt 0.625000 0.500000
vt 0.375000 0.750000
vt 0.625000 0.750000
vt 0.375000 1.000000
vt 0.125000 0.750000
vt 0.125000 0.500000
vt 0.875000 0.500000
vt 0.625000 1.000000
vt 0.875000 0.750000
vn -1.0000 0.0000 0.0000
vn 0.0000 1.0000 0.0000
vn 1.0000 0.0000 0.0000
vn 0.0000 -1.0000 0.0000
vn 0.0000 0.0000 -1.0000
vn 0.0000 0.0000 1.0000
usemtl tutorial_jump
s off
f 6/1/1 1/2/1 7/3/1
f 2/4/2 4/5/2 1/2/2
f 5/6/3 3/7/3 4/5/3
f 8/8/4 7/9/4 3/7/4
f 4/5/5 7/10/5 1/11/5
f 2/12/6 8/8/6 5/6/6
f 6/1/1 2/4/1 1/2/1
f 2/4/2 5/6/2 4/5/2
f 5/6/3 8/8/3 3/7/3
f 8/8/4 6/13/4 7/9/4
f 4/5/5 3/7/5 7/10/5
f 2/12/6 6/14/6 8/8/6
