# Blender v3.5.0 OBJ File: 'tutorial.blend'
# www.blender.org
mtllib tutorial_0001_popup_0000.mtl
o Cube.022_Cube.024
v -160.047653 -16.463362 511.277618
v -160.047653 -16.463362 606.741516
v 17.679140 -16.463362 511.277618
v 17.679140 79.000580 606.741516
v 17.679140 79.000580 511.277618
v -160.047653 79.000580 511.277618
v -160.047653 79.000580 606.741516
v 17.679140 -16.463362 606.741516
v 17.679140 79.000580 511.277618
v 17.679140 79.000580 511.277618
v -160.047653 79.000580 511.277618
v -160.047653 79.000580 511.277618
v -160.047653 -16.463362 511.277618
v -160.047653 -16.463362 511.277618
v 17.679140 -16.463362 511.277618
v 17.679140 -16.463362 511.277618
v -160.047653 79.000580 606.741516
v -160.047653 79.000580 606.741516
v 17.679140 79.000580 606.741516
v 17.679140 79.000580 606.741516
v -160.047653 -16.463362 606.741516
v -160.047653 -16.463362 606.741516
v 17.679140 -16.463362 606.741516
v 17.679140 -16.463362 606.741516
vt 0.625000 0.000000
vt 0.375000 0.250000
vt 0.375000 0.000000
vt 0.625000 0.250000
vt 0.375000 0.500000
vt 0.375000 0.250000
vt 0.625000 0.500000
vt 0.375000 0.750000
vt 0.375000 0.500000
vt 0.625000 0.750000
vt 0.375000 1.000000
vt 0.375000 0.750000
vt 0.375000 0.500000
vt 0.125000 0.750000
vt 0.125000 0.500000
vt 0.875000 0.500000
vt 0.625000 0.750000
vt 0.625000 0.500000
vt 0.625000 0.250000
vt 0.625000 0.500000
vt 0.625000 0.750000
vt 0.625000 1.000000
vt 0.375000 0.750000
vt 0.875000 0.750000
vn -1.0000 0.0000 0.0000
vn 0.0000 1.0000 0.0000
vn 1.0000 0.0000 0.0000
vn 0.0000 -1.0000 0.0000
vn 0.0000 0.0000 -1.0000
vn 0.0000 0.0000 1.0000
usemtl tutorial_walk
s off
f 21/1/1 12/2/1 14/3/1
f 17/4/2 9/5/2 11/6/2
f 20/7/3 16/8/3 10/9/3
f 24/10/4 13/11/4 15/12/4
f 5/13/5 1/14/5 6/15/5
f 7/16/6 8/17/6 4/18/6
f 21/1/1 18/19/1 12/2/1
f 17/4/2 19/20/2 9/5/2
f 20/7/3 23/21/3 16/8/3
f 24/10/4 22/22/4 13/11/4
f 5/13/5 3/23/5 1/14/5
f 7/16/6 2/24/6 8/17/6
