# Blender v3.5.0 OBJ File: 'tutorial.blend'
# www.blender.org
mtllib tutorial_0000_popup_0000.mtl
o Cube.022_Cube.024
v -160.047653 -16.463362 511.277618
v -160.047653 79.000580 511.277618
v 17.557194 -16.463362 606.741516
v 17.557194 79.000580 511.277618
v 17.557194 -16.463362 511.277618
v -160.047653 79.000580 606.741516
v 17.557194 79.000580 606.741516
v -160.047653 -16.463362 606.741516
vt 0.625000 0.000000
vt 0.375000 0.250000
vt 0.375000 0.000000
vt 0.625000 0.250000
vt 0.375000 0.500000
vt 0.625000 0.500000
vt 0.375000 0.750000
vt 0.625000 0.750000
vt 0.375000 1.000000
vt 0.125000 0.750000
vt 0.125000 0.500000
vt 0.875000 0.500000
vt 0.625000 1.000000
vt 0.875000 0.750000
vn -1.0000 0.0000 0.0000
vn 0.0000 1.0000 0.0000
vn 1.0000 0.0000 0.0000
vn 0.0000 -1.0000 0.0000
vn 0.0000 0.0000 -1.0000
vn 0.0000 0.0000 1.0000
usemtl tutorial_walk
s off
f 8/1/1 2/2/1 1/3/1
f 6/4/2 4/5/2 2/2/2
f 7/6/3 5/7/3 4/5/3
f 3/8/4 1/9/4 5/7/4
f 4/5/5 1/10/5 2/11/5
f 6/12/6 3/8/6 7/6/6
f 8/1/1 6/4/1 2/2/1
f 6/4/2 7/6/2 4/5/2
f 7/6/3 3/8/3 5/7/3
f 3/8/4 8/13/4 1/9/4
f 4/5/5 5/7/5 1/10/5
f 6/12/6 8/14/6 3/8/6
