# Blender v3.5.0 OBJ File: 'tutorial.blend'
# www.blender.org
mtllib tutorial_0001_popup_0001.mtl
o Cube.008_Cube.025
v 20.321882 -16.463362 511.277618
v 20.321882 -16.463362 606.741516
v 198.048676 79.000580 606.741516
v 198.048676 79.000580 511.277618
v 20.321882 79.000580 511.277618
v 20.321882 79.000580 606.741516
v 198.048676 -16.463362 511.277618
v 198.048676 -16.463362 606.741516
v 198.048676 79.000580 511.277618
v 198.048676 79.000580 511.277618
v 198.048676 -16.463362 511.277618
v 198.048676 -16.463362 511.277618
v 198.048676 -16.463362 606.741516
v 198.048676 -16.463362 606.741516
v 20.321882 79.000580 511.277618
v 20.321882 79.000580 511.277618
v 198.048676 79.000580 606.741516
v 198.048676 79.000580 606.741516
v 20.321882 79.000580 606.741516
v 20.321882 79.000580 606.741516
v 20.321882 -16.463362 511.277618
v 20.321882 -16.463362 511.277618
v 20.321882 -16.463362 606.741516
v 20.321882 -16.463362 606.741516
vt 0.625000 0.000000
vt 0.375000 0.250000
vt 0.375000 0.000000
vt 0.625000 0.250000
vt 0.375000 0.500000
vt 0.375000 0.250000
vt 0.625000 0.500000
vt 0.375000 0.750000
vt 0.375000 0.500000
vt 0.625000 0.750000
vt 0.375000 1.000000
vt 0.375000 0.750000
vt 0.375000 0.500000
vt 0.125000 0.750000
vt 0.125000 0.500000
vt 0.875000 0.500000
vt 0.625000 0.750000
vt 0.625000 0.500000
vt 0.625000 0.250000
vt 0.625000 0.500000
vt 0.625000 0.750000
vt 0.625000 1.000000
vt 0.375000 0.750000
vt 0.875000 0.750000
vn -1.0000 0.0000 0.0000
vn 0.0000 1.0000 0.0000
vn 1.0000 0.0000 0.0000
vn 0.0000 -1.0000 0.0000
vn 0.0000 0.0000 -1.0000
vn 0.0000 0.0000 1.0000
usemtl tutorial_run
s off
f 23/1/1 16/2/1 22/3/1
f 19/4/2 10/5/2 15/6/2
f 18/7/3 11/8/3 9/9/3
f 14/10/4 21/11/4 12/12/4
f 4/13/5 1/14/5 5/15/5
f 6/16/6 8/17/6 3/18/6
f 23/1/1 20/19/1 16/2/1
f 19/4/2 17/20/2 10/5/2
f 18/7/3 13/21/3 11/8/3
f 14/10/4 24/22/4 21/11/4
f 4/13/5 7/23/5 1/14/5
f 6/16/6 2/24/6 8/17/6
