# Blender v3.5.1 OBJ File: 'tutorial_0001.blend'
# www.blender.org
mtllib tutorial_0000_death_0001.mtl
o Cube.003_Cube.002
v 358.665894 -17.025173 268.344788
v 358.665894 -17.025173 331.987427
v 422.308472 -17.025173 268.344788
v 358.665894 46.617435 268.344788
v 358.665894 46.617435 331.987427
v 422.308472 46.617435 268.344788
v 422.308472 46.617435 331.987427
v 422.308472 -17.025173 331.987427
v 422.308472 46.617435 268.344788
v 422.308472 46.617435 268.344788
v 358.665894 46.617435 268.344788
v 358.665894 46.617435 268.344788
v 358.665894 46.617435 331.987427
v 358.665894 46.617435 331.987427
v 422.308472 46.617435 331.987427
v 422.308472 46.617435 331.987427
v 358.665894 -17.025173 268.344788
v 358.665894 -17.025173 268.344788
v 422.308472 -17.025173 268.344788
v 422.308472 -17.025173 268.344788
v 358.665894 -17.025173 331.987427
v 358.665894 -17.025173 331.987427
v 422.308472 -17.025173 331.987427
v 422.308472 -17.025173 331.987427
vt 0.625000 0.000000
vt 0.375000 0.250000
vt 0.375000 0.000000
vt 0.625000 0.250000
vt 0.375000 0.500000
vt 0.375000 0.250000
vt 0.625000 0.500000
vt 0.375000 0.750000
vt 0.375000 0.500000
vt 0.625000 0.750000
vt 0.375000 1.000000
vt 0.375000 0.750000
vt 0.375000 0.500000
vt 0.125000 0.750000
vt 0.125000 0.500000
vt 0.875000 0.500000
vt 0.625000 0.750000
vt 0.625000 0.500000
vt 0.625000 0.250000
vt 0.625000 0.500000
vt 0.625000 0.750000
vt 0.625000 1.000000
vt 0.375000 0.750000
vt 0.875000 0.750000
vn -1.0000 0.0000 0.0000
vn 0.0000 1.0000 0.0000
vn 1.0000 0.0000 0.0000
vn 0.0000 -1.0000 0.0000
vn 0.0000 0.0000 -1.0000
vn 0.0000 0.0000 1.0000
usemtl None
s off
f 21/1/1 12/2/1 18/3/1
f 13/4/2 9/5/2 11/6/2
f 16/7/3 20/8/3 10/9/3
f 24/10/4 17/11/4 19/12/4
f 6/13/5 1/14/5 4/15/5
f 5/16/6 8/17/6 7/18/6
f 21/1/1 14/19/1 12/2/1
f 13/4/2 15/20/2 9/5/2
f 16/7/3 23/21/3 20/8/3
f 24/10/4 22/22/4 17/11/4
f 6/13/5 3/23/5 1/14/5
f 5/16/6 2/24/6 8/17/6
