# Blender v3.5.0 OBJ File: 'BlenderExportTestMap.blend'
# www.blender.org
mtllib tunnels_0000_death_0000.mtl
o Cube.005_Cube.015
v 201.552979 -63.884598 -75.102051
v 201.552979 -63.884598 70.760666
v 201.552979 67.318893 -75.102051
v 201.552979 67.318893 70.760666
v 305.249969 -89.231010 -103.280396
v 305.249969 -89.231010 98.939011
v 305.249969 92.665306 -103.280396
v 305.249969 92.665306 98.939011
v 201.552979 92.665306 -103.280396
v 201.552979 -89.231010 -103.280396
v 201.552979 -89.231010 98.939011
v 201.552979 92.665306 98.939011
v 269.752228 67.318893 -75.102051
v 269.752228 -63.884598 -75.102051
v 269.752228 -63.884598 70.760666
v 269.752228 67.318893 70.760666
v 269.752228 67.318893 -75.102051
v 269.752228 -63.884598 -75.102051
v 269.752228 -63.884598 70.760666
v 269.752228 67.318893 70.760666
vt 0.590164 0.215164
vt 0.590164 0.034836
vt 0.590164 0.034836
vt 0.625000 0.250000
vt 0.375000 0.500000
vt 0.375000 0.250000
vt 0.625000 0.500000
vt 0.375000 0.750000
vt 0.625000 0.750000
vt 0.375000 1.000000
vt 0.125000 0.750000
vt 0.125000 0.500000
vt 0.875000 0.500000
vt 0.409836 0.215164
vt 0.375000 0.000000
vt 0.409836 0.034836
vt 0.625000 0.000000
vt 0.590164 0.034836
vt 0.409836 0.215164
vt 0.409836 0.034836
vt 0.409836 0.215164
vt 0.590164 0.215164
vt 0.409836 0.034836
vt 0.625000 1.000000
vt 0.875000 0.750000
vt 0.590164 0.215164
vn 0.0000 0.0000 -1.0000
vn 0.0000 1.0000 0.0000
vn 1.0000 0.0000 0.0000
vn 0.0000 -1.0000 0.0000
vn 0.0000 0.0000 1.0000
vn -1.0000 0.0000 0.0000
usemtl None
s off
f 4/1/1 15/2/1 2/3/1
f 12/4/2 7/5/2 9/6/2
f 8/7/3 5/8/3 7/5/3
f 6/9/4 10/10/4 5/8/4
f 7/5/1 10/11/1 9/12/1
f 12/13/5 6/9/5 8/7/5
f 3/14/6 10/15/6 1/16/6
f 1/16/6 11/17/6 2/3/6
f 2/3/6 12/4/6 4/1/6
f 4/1/6 9/6/6 3/14/6
f 19/18/6 17/19/6 18/20/6
f 1/16/5 13/21/5 3/14/5
f 3/14/4 20/22/4 4/1/4
f 2/3/2 14/23/2 1/16/2
f 4/1/1 20/22/1 15/2/1
f 12/4/2 8/7/2 7/5/2
f 8/7/3 6/9/3 5/8/3
f 6/9/4 11/24/4 10/10/4
f 7/5/1 5/8/1 10/11/1
f 12/13/5 11/25/5 6/9/5
f 3/14/6 9/6/6 10/15/6
f 1/16/6 10/15/6 11/17/6
f 2/3/6 11/17/6 12/4/6
f 4/1/6 12/4/6 9/6/6
f 19/18/6 16/26/6 17/19/6
f 1/16/5 14/23/5 13/21/5
f 3/14/4 13/21/4 20/22/4
f 2/3/2 15/2/2 14/23/2
