# Blender v3.5.0 OBJ File: 'woods2.blend'
# www.blender.org
mtllib woods_0001_death_0000.mtl
o DEATH.000_Cube.024
v 2072.490967 -802.833496 -2.414685
v 2072.490967 -802.833496 -77.304329
v 2072.490967 799.998535 -2.414685
v 2072.490967 799.998535 -77.304329
v 1264.165283 -802.833496 -2.414685
v 1264.165283 799.998535 -77.304329
v 1264.165283 -802.833496 -77.304329
v 1264.165283 799.998535 -2.414685
v 563.017151 136.893646 79.358963
v 562.953247 291.185547 48.036438
v 720.352051 144.557953 24.414543
v 707.396301 299.415985 24.414543
v 562.953247 297.198364 -49.897301
v 563.017151 136.893646 -49.897301
v 720.352051 144.557953 -49.897301
v 707.396301 299.415985 -49.897301
v 904.122803 1.662163 38.342216
v 952.913635 -221.370682 38.342216
v 1112.820557 -219.912201 38.342216
v 1072.588135 5.624864 38.342216
v 904.122803 1.662163 -82.863388
v 952.913635 -221.370682 -82.863388
v 1112.820557 -219.912201 -82.863388
v 1072.588135 5.624864 -82.863388
v 655.156311 -331.749969 29.990774
v 645.300964 -509.071198 29.990774
v 840.142212 -516.626892 29.990774
v 845.891052 -340.783905 29.990774
v 655.156311 -331.749969 -82.863388
v 645.300964 -509.071198 -82.863388
v 840.142212 -516.626892 -82.863388
v 845.891052 -340.783905 -82.863388
v 2072.490967 303.787598 -2.414685
v 2072.490967 303.787598 -77.304329
v 1264.165283 303.787598 -77.304329
v 1264.165283 303.787598 -2.414685
v 689.872803 441.795868 -77.304329
v 698.776550 799.998535 -77.304329
v 698.776550 799.998535 -2.414685
v 689.872803 441.795868 -2.414685
v 1264.165283 -678.394226 -2.414685
v 2072.490967 -678.394226 -2.414685
v 2072.490967 -678.394226 -77.304329
v 1264.165283 -678.394226 -77.304329
v 805.621704 -678.394226 -2.414685
v 805.621704 -802.833496 -2.414685
v 805.621704 -802.833496 -77.304329
v 805.621704 -678.394226 -77.304329
v 633.244629 107.464035 51.886753
v 636.360413 316.915436 36.225491
v 633.244629 107.464035 -49.897301
v 636.360413 328.305115 -49.897301
v 526.647339 209.208389 63.697712
v 748.046692 222.051483 24.414543
v 526.647339 220.598022 -49.897301
v 748.046692 222.051483 -49.897301
v 634.802551 217.884567 -49.897301
v 634.802551 212.189728 53.697018
v 907.094849 -113.665634 38.342216
v 1115.682617 -104.254196 38.342216
v 907.094849 -113.665634 -82.863388
v 1115.682617 -104.254196 -82.863388
v 1027.322144 -234.387115 38.342216
v 991.327515 21.971060 38.342216
v 1027.322144 -234.387115 -82.863388
v 991.327515 21.971060 -82.863388
v 1011.388733 -108.959915 -82.863388
v 1011.388733 -108.959915 38.342216
v 627.890015 -420.656921 29.990774
v 863.959045 -419.671417 29.990774
v 627.890015 -420.656921 -82.863388
v 863.959045 -419.671417 -82.863388
v 743.953491 -539.622437 29.990774
v 743.953491 -306.619110 29.990774
v 743.953491 -539.622437 -82.863388
v 743.953491 -306.619110 -82.863388
v 743.953491 -419.671417 -82.863388
v 743.953491 -419.671417 29.990774
vt 0.000000 0.000000
vt 0.000000 0.000000
vt 0.000000 0.000000
vt 0.000000 0.000000
vt 0.000000 0.000000
vt 0.000000 0.000000
vt 0.000000 0.000000
vt 0.000000 0.000000
vt 0.000000 0.000000
vt 0.000000 0.000000
vt 0.000000 0.000000
vt 0.000000 0.000000
vt 0.000000 0.000000
vt 0.000000 0.000000
vt 0.000000 0.000000
vt 0.000000 0.000000
vt 0.000000 0.000000
vt 0.000000 0.000000
vt 0.000000 0.000000
vt 0.000000 0.000000
vt 0.000000 0.000000
vt 0.000000 0.000000
vt 0.000000 0.000000
vt 0.000000 0.000000
vt 0.000000 0.000000
vt 0.000000 0.000000
vt 0.000000 0.000000
vt 0.000000 0.000000
vt 0.000000 0.000000
vt 0.000000 0.000000
vt 0.000000 0.000000
vt 0.000000 0.000000
vt 0.000000 0.000000
vt 0.000000 0.000000
vt 0.000000 0.000000
vt 0.000000 0.000000
vt 0.000000 0.000000
vt 0.000000 0.000000
vt 0.000000 0.000000
vt 0.000000 0.000000
vt 0.000000 0.000000
vt 0.000000 0.000000
vt 0.000000 0.000000
vt 0.000000 0.000000
vt 0.000000 0.000000
vt 0.000000 0.000000
vt 0.000000 0.000000
vt 0.000000 0.000000
vt 0.000000 0.000000
vt 0.000000 0.000000
vt 0.000000 0.000000
vt 0.000000 0.000000
vt 0.000000 0.000000
vt 0.000000 0.000000
vt 0.000000 0.000000
vt 0.000000 0.000000
vt 0.000000 0.000000
vt 0.000000 0.000000
vt 0.000000 0.000000
vt 0.000000 0.000000
vt 0.000000 0.000000
vt 0.000000 0.000000
vt 0.000000 0.000000
vt 0.000000 0.000000
vt 0.000000 0.000000
vt 0.000000 0.000000
vt 0.000000 0.000000
vt 0.000000 0.000000
vt 0.000000 0.000000
vt 0.000000 0.000000
vt 0.000000 0.000000
vt 0.000000 0.000000
vt 0.000000 0.000000
vt 0.000000 0.000000
vt 0.000000 0.000000
vt 0.000000 0.000000
vt 0.000000 0.000000
vt 0.000000 0.000000
vn 0.0000 -1.0000 0.0000
vn 1.0000 0.0000 0.0000
vn 0.0000 0.0000 -1.0000
vn 0.0000 0.0000 1.0000
vn 0.0000 1.0000 0.0000
vn -0.0823 -0.2503 -0.9647
vn 0.3873 -0.9140 -0.1209
vn 0.9164 0.3982 0.0399
vn -0.8852 -0.4651 0.0000
vn -0.3918 0.9201 0.0000
vn -0.9310 -0.3651 0.0000
vn -0.1669 0.9860 0.0000
vn 0.2268 -0.9739 0.0000
vn 0.9202 0.3915 0.0000
vn -0.9748 -0.2233 0.0000
vn -0.2325 0.9726 0.0000
vn 0.2723 -0.9622 0.0000
vn 0.9812 0.1932 0.0000
vn -0.9997 0.0248 0.0000
vn -0.2337 -0.9723 0.0000
vn -1.0000 0.0000 0.0000
vn 0.3865 0.9223 0.0000
vn -0.3767 -0.9263 0.0000
vn -0.2568 0.0918 -0.9621
vn -0.1998 -0.1583 -0.9670
vn -0.9417 0.3365 0.0000
vn 0.9033 -0.4281 -0.0263
vn -0.1011 -0.1623 -0.9816
vn 0.9997 0.0258 0.0000
vn -0.9997 0.0247 0.0000
vn -0.1972 -0.9804 0.0000
vn 0.1723 0.9850 0.0000
vn 0.9560 -0.2932 0.0000
vn -0.9711 0.2386 0.0000
vn -0.3178 -0.9482 0.0000
vn 0.2958 0.9552 0.0000
vn -0.3564 0.0214 -0.9341
vn 0.3219 -0.9450 -0.0580
vn 0.8934 0.4493 0.0000
vn -0.2571 -0.9580 -0.1267
vn -0.3088 0.0210 -0.9509
vn -0.2381 -0.1251 -0.9631
vn 0.9106 -0.4112 -0.0412
vn -0.0869 -0.1497 -0.9849
usemtl Material.006
s off
f 7/1/1 1/2/1 5/3/1
f 34/4/2 3/5/2 33/6/2
f 2/7/3 44/8/3 43/9/3
f 41/10/4 1/2/4 42/11/4
f 4/12/5 8/13/5 3/5/5
f 58/14/6 9/15/6 53/16/6
f 57/17/4 14/18/4 51/19/4
f 50/20/7 13/21/7 52/22/7
f 53/16/8 14/18/8 55/23/8
f 12/24/9 56/25/9 54/26/9
f 11/27/10 51/19/10 49/28/10
f 68/29/3 18/30/3 59/31/3
f 67/32/4 22/33/4 65/34/4
f 20/35/11 62/36/11 60/37/11
f 19/38/12 65/34/12 63/39/12
f 17/40/13 66/41/13 64/42/13
f 18/30/14 61/43/14 59/31/14
f 78/44/3 26/45/3 69/46/3
f 77/47/4 30/48/4 75/49/4
f 28/50/15 72/51/15 70/52/15
f 27/53/16 75/49/16 73/54/16
f 25/55/17 76/56/17 74/57/17
f 26/45/18 71/58/18 69/46/18
f 44/8/5 45/59/5 41/10/5
f 8/13/4 40/60/4 36/61/4
f 8/13/4 33/6/4 3/5/4
f 34/4/3 6/62/3 4/12/3
f 43/9/2 33/6/2 42/11/2
f 38/63/19 40/60/19 39/64/19
f 6/62/5 39/64/5 8/13/5
f 6/62/3 37/65/3 38/63/3
f 36/61/20 37/65/20 35/66/20
f 2/7/2 42/11/2 1/2/2
f 35/66/21 41/10/21 36/61/21
f 36/61/4 42/11/4 33/6/4
f 43/9/3 35/66/3 34/4/3
f 48/67/21 46/68/21 45/59/21
f 7/1/3 48/67/3 44/8/3
f 5/3/1 47/69/1 7/1/1
f 41/10/4 46/68/4 5/3/4
f 49/28/22 14/18/22 9/15/22
f 12/24/23 52/22/23 16/70/23
f 57/17/4 15/71/4 56/25/4
f 11/27/24 58/14/24 54/26/24
f 12/24/25 58/14/25 50/20/25
f 16/70/4 57/17/4 56/25/4
f 54/26/26 15/71/26 11/27/26
f 10/72/27 55/23/27 13/21/27
f 13/21/4 57/17/4 52/22/4
f 58/14/28 10/72/28 50/20/28
f 59/31/29 21/73/29 17/40/29
f 60/37/30 23/74/30 19/38/30
f 21/73/4 67/32/4 66/41/4
f 68/29/3 17/40/3 64/42/3
f 20/35/3 68/29/3 64/42/3
f 24/75/4 67/32/4 62/36/4
f 64/42/31 24/75/31 20/35/31
f 63/39/32 22/33/32 18/30/32
f 67/32/4 23/74/4 62/36/4
f 19/38/3 68/29/3 60/37/3
f 69/46/33 29/76/33 25/55/33
f 70/52/34 31/77/34 27/53/34
f 29/76/4 77/47/4 76/56/4
f 78/44/3 25/55/3 74/57/3
f 28/50/3 78/44/3 74/57/3
f 32/78/4 77/47/4 72/51/4
f 74/57/35 32/78/35 28/50/35
f 73/54/36 30/48/36 26/45/36
f 77/47/4 31/77/4 72/51/4
f 27/53/3 78/44/3 70/52/3
f 7/1/1 2/7/1 1/2/1
f 34/4/2 4/12/2 3/5/2
f 2/7/3 7/1/3 44/8/3
f 41/10/4 5/3/4 1/2/4
f 4/12/5 6/62/5 8/13/5
f 58/14/37 49/28/37 9/15/37
f 57/17/4 55/23/4 14/18/4
f 50/20/38 10/72/38 13/21/38
f 53/16/39 9/15/39 14/18/39
f 12/24/9 16/70/9 56/25/9
f 11/27/10 15/71/10 51/19/10
f 68/29/3 63/39/3 18/30/3
f 67/32/4 61/43/4 22/33/4
f 20/35/11 24/75/11 62/36/11
f 19/38/12 23/74/12 65/34/12
f 17/40/13 21/73/13 66/41/13
f 18/30/14 22/33/14 61/43/14
f 78/44/3 73/54/3 26/45/3
f 77/47/4 71/58/4 30/48/4
f 28/50/15 32/78/15 72/51/15
f 27/53/16 31/77/16 75/49/16
f 25/55/17 29/76/17 76/56/17
f 26/45/18 30/48/18 71/58/18
f 44/8/5 48/67/5 45/59/5
f 8/13/4 39/64/4 40/60/4
f 8/13/4 36/61/4 33/6/4
f 34/4/3 35/66/3 6/62/3
f 43/9/2 34/4/2 33/6/2
f 38/63/19 37/65/19 40/60/19
f 6/62/5 38/63/5 39/64/5
f 6/62/3 35/66/3 37/65/3
f 36/61/20 40/60/20 37/65/20
f 2/7/2 43/9/2 42/11/2
f 35/66/21 44/8/21 41/10/21
f 36/61/4 41/10/4 42/11/4
f 43/9/3 44/8/3 35/66/3
f 48/67/21 47/69/21 46/68/21
f 7/1/3 47/69/3 48/67/3
f 5/3/1 46/68/1 47/69/1
f 41/10/4 45/59/4 46/68/4
f 49/28/22 51/19/22 14/18/22
f 12/24/40 50/20/40 52/22/40
f 57/17/4 51/19/4 15/71/4
f 11/27/41 49/28/41 58/14/41
f 12/24/42 54/26/42 58/14/42
f 16/70/4 52/22/4 57/17/4
f 54/26/26 56/25/26 15/71/26
f 10/72/43 53/16/43 55/23/43
f 13/21/4 55/23/4 57/17/4
f 58/14/44 53/16/44 10/72/44
f 59/31/29 61/43/29 21/73/29
f 60/37/30 62/36/30 23/74/30
f 21/73/4 61/43/4 67/32/4
f 68/29/3 59/31/3 17/40/3
f 20/35/3 60/37/3 68/29/3
f 24/75/4 66/41/4 67/32/4
f 64/42/31 66/41/31 24/75/31
f 63/39/32 65/34/32 22/33/32
f 67/32/4 65/34/4 23/74/4
f 19/38/3 63/39/3 68/29/3
f 69/46/33 71/58/33 29/76/33
f 70/52/34 72/51/34 31/77/34
f 29/76/4 71/58/4 77/47/4
f 78/44/3 69/46/3 25/55/3
f 28/50/3 70/52/3 78/44/3
f 32/78/4 76/56/4 77/47/4
f 74/57/35 76/56/35 32/78/35
f 73/54/36 75/49/36 30/48/36
f 77/47/4 75/49/4 31/77/4
f 27/53/3 73/54/3 78/44/3
