# Blender v3.5.0 OBJ File: 'woods2.blend'
# www.blender.org
mtllib woods_0000_death_0001.mtl
o DEATH.001_Cube.1142
v -854.778259 -578.351868 140.946671
v 2013.451904 -578.351868 140.946671
v 2013.451904 -578.351868 -291.455872
v -854.778259 575.516907 -291.455872
v 2013.451904 575.516907 140.946671
v -854.778259 -578.351868 -291.455872
v 2013.451904 575.516907 -291.455872
v -854.778259 575.516907 140.946671
v -1247.124512 -970.698242 140.946671
v 2405.798096 -970.698242 140.946671
v 2405.798096 967.863281 140.946671
v 2405.798096 -970.698242 -291.455872
v 2405.798096 967.863281 -291.455872
v -1247.124512 967.863281 140.946671
v -1247.124512 967.863281 -291.455872
v -1247.124512 -970.698242 -291.455872
v -854.778259 -578.351868 140.946671
v -854.778259 -578.351868 140.946671
v -854.778259 -578.351868 140.946671
v 2013.451904 -578.351868 140.946671
v 2013.451904 -578.351868 140.946671
v 2013.451904 -578.351868 140.946671
v 2013.451904 575.516907 140.946671
v 2013.451904 575.516907 140.946671
v 2013.451904 575.516907 140.946671
v 2013.451904 -578.351868 -291.455872
v 2013.451904 -578.351868 -291.455872
v 2013.451904 -578.351868 -291.455872
v 2013.451904 575.516907 -291.455872
v 2013.451904 575.516907 -291.455872
v 2013.451904 575.516907 -291.455872
v -854.778259 575.516907 140.946671
v -854.778259 575.516907 140.946671
v -854.778259 575.516907 140.946671
v 2405.798096 -970.698242 140.946671
v 2405.798096 -970.698242 140.946671
v 2405.798096 -970.698242 140.946671
v -854.778259 575.516907 -291.455872
v -854.778259 575.516907 -291.455872
v -854.778259 575.516907 -291.455872
v -1247.124512 -970.698242 140.946671
v -1247.124512 -970.698242 140.946671
v -1247.124512 -970.698242 140.946671
v -1247.124512 967.863281 140.946671
v -1247.124512 967.863281 140.946671
v -1247.124512 967.863281 140.946671
v 2405.798096 967.863281 140.946671
v 2405.798096 967.863281 140.946671
v 2405.798096 967.863281 140.946671
v -854.778259 -578.351868 -291.455872
v -854.778259 -578.351868 -291.455872
v -854.778259 -578.351868 -291.455872
v 2405.798096 -970.698242 -291.455872
v 2405.798096 -970.698242 -291.455872
v 2405.798096 -970.698242 -291.455872
v 2405.798096 967.863281 -291.455872
v 2405.798096 967.863281 -291.455872
v 2405.798096 967.863281 -291.455872
v -1247.124512 967.863281 -291.455872
v -1247.124512 967.863281 -291.455872
v -1247.124512 967.863281 -291.455872
v -1247.124512 -970.698242 -291.455872
v -1247.124512 -970.698242 -291.455872
v -1247.124512 -970.698242 -291.455872
vt 0.000000 0.000000
vt 0.000000 0.000000
vt 0.000000 0.000000
vt 0.000000 0.000000
vt 0.000000 0.000000
vt 0.000000 0.000000
vt 0.000000 0.000000
vt 0.000000 0.000000
vt 0.000000 0.000000
vt 0.000000 0.000000
vt 0.000000 0.000000
vt 0.000000 0.000000
vt 0.000000 0.000000
vt 0.000000 0.000000
vt 0.000000 0.000000
vt 0.000000 0.000000
vt 0.000000 0.000000
vt 0.000000 0.000000
vt 0.000000 0.000000
vt 0.000000 0.000000
vt 0.000000 0.000000
vt 0.000000 0.000000
vt 0.000000 0.000000
vt 0.000000 0.000000
vt 0.000000 0.000000
vt 0.000000 0.000000
vt 0.000000 0.000000
vt 0.000000 0.000000
vt 0.000000 0.000000
vt 0.000000 0.000000
vt 0.000000 0.000000
vt 0.000000 0.000000
vt 0.000000 0.000000
vt 0.000000 0.000000
vt 0.000000 0.000000
vt 0.000000 0.000000
vt 0.000000 0.000000
vt 0.000000 0.000000
vt 0.000000 0.000000
vt 0.000000 0.000000
vt 0.000000 0.000000
vt 0.000000 0.000000
vt 0.000000 0.000000
vt 0.000000 0.000000
vt 0.000000 0.000000
vt 0.000000 0.000000
vt 0.000000 0.000000
vt 0.000000 0.000000
vt 0.000000 0.000000
vt 0.000000 0.000000
vt 0.000000 0.000000
vt 0.000000 0.000000
vt 0.000000 0.000000
vt 0.000000 0.000000
vt 0.000000 0.000000
vt 0.000000 0.000000
vt 0.000000 0.000000
vt 0.000000 0.000000
vt 0.000000 0.000000
vt 0.000000 0.000000
vt 0.000000 0.000000
vt 0.000000 0.000000
vt 0.000000 0.000000
vt 0.000000 0.000000
vn 0.0000 0.0000 -1.0000
vn 0.0000 0.0000 1.0000
vn 0.0000 -1.0000 0.0000
vn 1.0000 0.0000 0.0000
vn 0.0000 1.0000 0.0000
vn -1.0000 0.0000 0.0000
usemtl Material.006
s off
f 38/1/1 57/2/1 30/3/1
f 27/4/1 63/5/1 50/6/1
f 17/7/2 35/8/2 20/9/2
f 31/10/3 34/11/3 40/12/3
f 24/13/2 44/14/2 33/15/2
f 39/16/4 18/17/4 51/18/4
f 62/19/3 37/20/3 43/21/3
f 58/22/5 46/23/5 49/24/5
f 53/25/4 48/26/4 36/27/4
f 61/28/6 42/29/6 45/30/6
f 8/31/2 9/32/2 1/33/2
f 21/34/2 11/35/2 23/36/2
f 6/37/1 15/38/1 4/39/1
f 29/40/1 12/41/1 26/42/1
f 28/43/6 5/44/6 7/45/6
f 52/46/5 2/47/5 3/48/5
f 38/1/1 60/49/1 57/2/1
f 27/4/1 55/50/1 63/5/1
f 17/7/2 41/51/2 35/8/2
f 31/10/3 25/52/3 34/11/3
f 24/13/2 47/53/2 44/14/2
f 39/16/4 32/54/4 18/17/4
f 62/19/3 54/55/3 37/20/3
f 58/22/5 59/56/5 46/23/5
f 53/25/4 56/57/4 48/26/4
f 61/28/6 64/58/6 42/29/6
f 8/31/2 14/59/2 9/32/2
f 21/34/2 10/60/2 11/35/2
f 6/37/1 16/61/1 15/38/1
f 29/40/1 13/62/1 12/41/1
f 28/43/6 22/63/6 5/44/6
f 52/46/5 19/64/5 2/47/5
